<svg width="60" height="60" viewBox="0 0 60 60" fill="none" xmlns="http://www.w3.org/2000/svg">
<g clip-path="url(#clip0_20_256)">
<path d="M57 27.9999C57.0007 25.982 56.2359 24.039 54.86 22.5629C54.9533 22.0471 55.0002 21.524 55 20.9999C55.0026 19.0509 54.3715 17.1539 53.202 15.5947C52.0325 14.0356 50.3879 12.8989 48.516 12.3559C48.9276 11.392 49.0796 10.337 48.9567 9.29607C48.8338 8.25514 48.4403 7.26457 47.8155 6.42299C47.1907 5.58141 46.3563 4.9182 45.3955 4.49939C44.4346 4.08057 43.3808 3.92078 42.339 4.03591C41.8006 2.88661 40.9599 1.90531 39.9068 1.19699C38.8537 0.48867 37.6278 0.079983 36.3604 0.014653C35.0929 -0.0506771 33.8315 0.229808 32.7112 0.826101C31.5908 1.42239 30.6537 2.31206 30 3.39991C29.3076 2.24893 28.2986 1.32148 27.0935 0.728235C25.8884 0.134988 24.538 -0.099006 23.2036 0.0541747C21.8691 0.207355 20.6069 0.741242 19.5676 1.59213C18.5282 2.44301 17.7556 3.57496 17.342 4.85291C17.1226 5.54776 17.0073 6.27128 17 6.99991V11.9999C17 12.2651 17.1054 12.5195 17.2929 12.707C17.4804 12.8945 17.7348 12.9999 18 12.9999C18.2652 12.9999 18.5196 12.8945 18.7071 12.707C18.8946 12.5195 19 12.2651 19 11.9999V6.99991C19.0092 6.48245 19.0906 5.96882 19.242 5.47391C19.6078 4.34116 20.3658 3.37609 21.3796 2.75224C22.3934 2.12839 23.5965 1.88669 24.7725 2.07061C25.9486 2.25453 27.0205 2.85199 27.7954 3.75557C28.5703 4.65915 28.9975 5.80955 29 6.99991V11.9999C29 12.2651 29.1054 12.5195 29.2929 12.707C29.4804 12.8945 29.7348 12.9999 30 12.9999C30.2652 12.9999 30.5196 12.8945 30.7071 12.707C30.8946 12.5195 31 12.2651 31 11.9999V6.99991C31.0025 5.80955 31.4297 4.65915 32.2046 3.75557C32.9795 2.85199 34.0514 2.25453 35.2275 2.07061C36.4035 1.88669 37.6066 2.12839 38.6204 2.75224C39.6342 3.37609 40.3922 4.34116 40.758 5.47391C40.8417 5.71709 41.0135 5.92003 41.2396 6.04261C41.4657 6.16519 41.7296 6.19848 41.979 6.13591C42.3117 6.04499 42.6551 5.99924 43 5.99991C43.6648 6.00026 44.3191 6.16631 44.9036 6.48306C45.4881 6.7998 45.9845 7.25724 46.3478 7.81401C46.7111 8.37079 46.9299 9.00934 46.9844 9.67193C47.0389 10.3345 46.9274 11.0002 46.66 11.6089C46.5794 11.8025 46.4788 11.9871 46.36 12.1599C46.3394 12.1894 46.3207 12.2201 46.304 12.2519L46.263 12.3239C46.2121 12.3761 46.1662 12.433 46.126 12.4939C46.0283 12.636 45.969 12.801 45.9538 12.9727C45.9387 13.1445 45.9682 13.3173 46.0396 13.4743C46.1109 13.6313 46.2217 13.7672 46.3611 13.8687C46.5004 13.9703 46.6637 14.0341 46.835 14.0539C48.5357 14.2539 50.1036 15.072 51.2404 16.3528C52.3771 17.6335 53.0034 19.2875 53 20.9999C53.0006 21.5517 52.9334 22.1015 52.8 22.6369C52.7795 22.7197 52.7694 22.8047 52.77 22.8899C52.77 23.0283 52.7987 23.1651 52.8543 23.2918C52.9099 23.4185 52.9912 23.5322 53.093 23.6259C54.0546 24.5188 54.693 25.7054 54.908 26.9999H47C46.7348 26.9999 46.4804 27.1053 46.2929 27.2928C46.1054 27.4803 46 27.7347 46 27.9999C46 28.2651 46.1054 28.5195 46.2929 28.707C46.4804 28.8946 46.7348 28.9999 47 28.9999H54.914C54.7404 30.0611 54.2786 31.0543 53.579 31.8709C53.4915 31.9735 53.4257 32.0927 53.3854 32.2213C53.3452 32.35 53.3314 32.4855 53.3448 32.6196C53.3583 32.7537 53.3987 32.8838 53.4637 33.0019C53.5287 33.12 53.6169 33.2238 53.723 33.3069C54.889 34.22 55.669 35.5383 55.908 36.9999H43V12.9999C43 12.7347 42.8946 12.4803 42.7071 12.2928C42.5196 12.1053 42.2652 11.9999 42 11.9999C41.7348 11.9999 41.4804 12.1053 41.2929 12.2928C41.1054 12.4803 41 12.7347 41 12.9999V36.9999H31V22.9999C31 22.4695 30.7893 21.9608 30.4142 21.5857C30.0391 21.2106 29.5304 20.9999 29 20.9999H22C21.7348 20.9999 21.4804 21.1053 21.2929 21.2928C21.1054 21.4803 21 21.7347 21 21.9999C21 22.2651 21.1054 22.5195 21.2929 22.707C21.4804 22.8946 21.7348 22.9999 22 22.9999H29V36.9999H25V27.9999C25 27.4695 24.7893 26.9608 24.4142 26.5857C24.0391 26.2106 23.5304 25.9999 23 25.9999H13C12.4696 25.9999 11.9609 26.2106 11.5858 26.5857C11.2107 26.9608 11 27.4695 11 27.9999V32.9999C11 33.2651 11.1054 33.5195 11.2929 33.707C11.4804 33.8946 11.7348 33.9999 12 33.9999C12.2652 33.9999 12.5196 33.8946 12.7071 33.707C12.8946 33.5195 13 33.2651 13 32.9999V27.9999H23V36.9999C23 37.5303 23.2107 38.0391 23.5858 38.4141C23.9609 38.7892 24.4696 38.9999 25 38.9999H36V52.9999C36 53.2651 36.1054 53.5195 36.2929 53.707C36.4804 53.8946 36.7348 53.9999 37 53.9999C37.2652 53.9999 37.5196 53.8946 37.7071 53.707C37.8946 53.5195 38 53.2651 38 52.9999V44.9999H44V47.9999C44 48.2651 44.1054 48.5195 44.2929 48.707C44.4804 48.8946 44.7348 48.9999 45 48.9999C45.2652 48.9999 45.5196 48.8946 45.7071 48.707C45.8946 48.5195 46 48.2651 46 47.9999V44.9999C46 44.4695 45.7893 43.9608 45.4142 43.5857C45.0391 43.2106 44.5304 42.9999 44 42.9999H38V38.9999H57C57.2652 38.9999 57.5196 38.8946 57.7071 38.707C57.8946 38.5195 58 38.2651 58 37.9999C58.0041 36.9576 57.8021 35.9248 57.4057 34.9608C57.0092 33.9969 56.4262 33.1208 55.69 32.3829C56.545 31.0811 57.0004 29.5574 57 27.9999Z" fill="black"/>
<path d="M54.286 42.2C53.5732 42.9273 52.686 43.4599 51.709 43.747C51.4857 43.8136 51.2927 43.956 51.1633 44.1497C51.0338 44.3434 50.9761 44.5763 51 44.808C51.0035 44.872 51.0035 44.9361 51 45C51.0065 46.5849 50.4725 48.1247 49.4863 49.3654C48.5001 50.6061 47.1205 51.4737 45.575 51.825C45.388 51.8818 45.219 51.9865 45.085 52.1288C44.951 52.271 44.8565 52.4459 44.811 52.636C44.792 52.708 44.775 52.783 44.753 52.849L44.694 53.049C44.634 53.241 44.572 53.434 44.494 53.628C43.8867 55.1373 42.7727 56.3879 41.3434 57.1649C39.9141 57.942 38.2587 58.1969 36.6619 57.8859C35.065 57.5749 33.6263 56.7174 32.593 55.4608C31.5598 54.2042 30.9965 52.6269 31 51V44C31 43.4696 30.7893 42.9609 30.4142 42.5858C30.0391 42.2107 29.5304 42 29 42H25C24.4696 42 23.9609 42.2107 23.5858 42.5858C23.2107 42.9609 23 43.4696 23 44V47H19V33C19 32.7348 18.8946 32.4804 18.7071 32.2929C18.5196 32.1054 18.2652 32 18 32C17.7348 32 17.4804 32.1054 17.2929 32.2929C17.1054 32.4804 17 32.7348 17 33V37H9C8.73478 37 8.48043 37.1054 8.29289 37.2929C8.10536 37.4804 8 37.7348 8 38C8 38.2652 8.10536 38.5196 8.29289 38.7071C8.48043 38.8946 8.73478 39 9 39H17V47C17 47.5304 17.2107 48.0391 17.5858 48.4142C17.9609 48.7893 18.4696 49 19 49H23C23.5304 49 24.0391 48.7893 24.4142 48.4142C24.7893 48.0391 25 47.5304 25 47V44H29V51C29 52.8565 28.2625 54.637 26.9497 55.9498C25.637 57.2625 23.8565 58 22 58C20.1435 58 18.363 57.2625 17.0503 55.9498C15.7375 54.637 15 52.8565 15 51C15.0002 50.7062 15.0183 50.4126 15.054 50.121C15.0859 49.8579 15.0121 49.593 14.8488 49.3843C14.6855 49.1756 14.446 49.0403 14.183 49.008C14.0524 48.9904 13.9196 48.9991 13.7925 49.0336C13.6653 49.0681 13.5463 49.1277 13.4425 49.2088C13.3387 49.29 13.2522 49.3911 13.188 49.5062C13.1239 49.6213 13.0834 49.748 13.069 49.879C13.0232 50.2509 13.0001 50.6253 13 51C13 51.108 13.016 51.214 13.02 51.322C11.8164 50.7619 10.7982 49.8689 10.0859 48.7486C9.3735 47.6284 8.99671 46.3276 9 45C8.99817 44.936 8.99984 44.8719 9.005 44.808C9.02792 44.5761 8.96911 44.3434 8.83875 44.1503C8.70838 43.9571 8.51465 43.8155 8.291 43.75C7.05309 43.3795 5.96737 42.6203 5.19454 41.5847C4.42172 40.5491 4.00288 39.2922 4 38C3.99624 37.0959 4.19948 36.2029 4.59417 35.3894C4.98885 34.5759 5.56449 33.8636 6.277 33.307C6.3831 33.2238 6.4713 33.1201 6.53629 33.002C6.60127 32.8839 6.6417 32.7538 6.65515 32.6197C6.66861 32.4856 6.6548 32.3501 6.61456 32.2214C6.57432 32.0928 6.50848 31.9736 6.421 31.871C5.49629 30.7941 4.99167 29.4194 5 28C4.99905 27.1788 5.16798 26.3663 5.49616 25.6136C5.82435 24.8609 6.30469 24.1842 6.907 23.626C7.03953 23.5042 7.13671 23.3488 7.18828 23.1763C7.23985 23.0038 7.2439 22.8206 7.2 22.646C7.06607 22.1076 6.9989 21.5548 7 21C6.99638 19.2874 7.62253 17.6332 8.7593 16.3523C9.89606 15.0713 11.4641 14.253 13.165 14.053C13.3418 14.0326 13.5099 13.9654 13.652 13.8583C13.7941 13.7512 13.9051 13.6082 13.9735 13.4439C14.0419 13.2796 14.0652 13.1001 14.041 12.9238C14.0169 12.7475 13.9461 12.5808 13.836 12.441C13.2999 11.7497 13.0059 10.9014 12.9994 10.0266C12.9929 9.15181 13.2742 8.29917 13.8 7.6C13.9591 7.38783 14.0275 7.12113 13.9899 6.85858C13.9524 6.59603 13.8122 6.35913 13.6 6.2C13.3878 6.04087 13.1211 5.97255 12.8586 6.01005C12.596 6.04756 12.3591 6.18783 12.2 6.4C11.4178 7.43687 10.9964 8.7012 11 10C11.0005 10.8101 11.1644 11.6118 11.482 12.357C9.61077 12.9004 7.96679 14.0372 6.79769 15.5961C5.62859 17.1549 4.99769 19.0515 5 21C4.9999 21.5248 5.04641 22.0485 5.139 22.565C3.92183 23.8726 3.1786 25.5507 3.0283 27.3308C2.878 29.1108 3.32932 30.8899 4.31 32.383C3.57383 33.1209 2.99077 33.997 2.59434 34.9609C2.19791 35.9249 1.99592 36.9577 2 38C2.00473 39.5943 2.48364 41.1511 3.37579 42.4725C4.26794 43.7938 5.533 44.8198 7.01 45.42C7.08837 47.2796 7.74424 49.0686 8.88641 50.5382C10.0286 52.0078 11.6003 53.085 13.383 53.62C13.9034 55.3352 14.924 56.8559 16.3142 57.9873C17.7043 59.1187 19.4006 59.8092 21.1857 59.9705C22.9707 60.1317 24.7633 59.7563 26.3337 58.8923C27.9041 58.0283 29.1807 56.7151 30 55.121C30.7883 56.6533 32 57.927 33.491 58.7909C34.982 59.6548 36.6896 60.0725 38.4111 59.9943C40.1325 59.9162 41.7953 59.3455 43.2019 58.3501C44.6085 57.3547 45.6997 55.9764 46.346 54.379C46.446 54.138 46.522 53.896 46.601 53.651L46.61 53.619C48.3942 53.0855 49.9676 52.0089 51.1111 50.5391C52.2547 49.0693 52.9114 47.2796 52.99 45.419C54.0137 45.007 54.9412 44.3877 55.714 43.6C55.8081 43.5067 55.8828 43.3956 55.9336 43.2732C55.9844 43.1508 56.0104 43.0196 56.01 42.887C56.0096 42.7545 55.9829 42.6234 55.9314 42.5013C55.88 42.3792 55.8047 42.2685 55.7101 42.1757C55.6154 42.083 55.5033 42.0099 55.3802 41.9609C55.2571 41.9118 55.1255 41.8877 54.993 41.8899C54.8605 41.8922 54.7297 41.9208 54.6084 41.974C54.487 42.0272 54.3774 42.1041 54.286 42.2Z" fill="black"/>
<path d="M36 30C36.2652 30 36.5196 29.8946 36.7071 29.7071C36.8946 29.5196 37 29.2652 37 29V6C37 5.73478 36.8946 5.48043 36.7071 5.29289C36.5196 5.10536 36.2652 5 36 5C35.7348 5 35.4804 5.10536 35.2929 5.29289C35.1054 5.48043 35 5.73478 35 6V16H18C17.4696 16 16.9609 16.2107 16.5858 16.5858C16.2107 16.9609 16 17.4696 16 18V22C16 22.2652 16.1054 22.5196 16.2929 22.7071C16.4804 22.8946 16.7348 23 17 23C17.2652 23 17.5196 22.8946 17.7071 22.7071C17.8946 22.5196 18 22.2652 18 22V18H35V29C35 29.2652 35.1054 29.5196 35.2929 29.7071C35.4804 29.8946 35.7348 30 36 30Z" fill="black"/>
</g>
<defs>
<clipPath id="clip0_20_256">
<rect width="60" height="60" fill="white"/>
</clipPath>
</defs>
</svg>
