<svg width="60" height="60" viewBox="0 0 60 60" fill="none" xmlns="http://www.w3.org/2000/svg">
<g clip-path="url(#clip0_20_276)">
<path d="M10 60H50C51.0609 60 52.0783 59.5786 52.8284 58.8285C53.5786 58.0783 54 57.0609 54 56V14C54 12.9392 53.5786 11.9218 52.8284 11.1716C52.0783 10.4215 51.0609 10 50 10H46.391C46.284 9.94004 46.181 9.87204 46.069 9.82004V9.75004C46.066 7.90896 45.3786 6.13476 44.1403 4.7723C42.902 3.40984 41.2014 2.55646 39.369 2.37804C38.4127 1.56453 37.2675 1.00411 36.0384 0.748148C34.8092 0.492189 33.5355 0.548884 32.334 0.913036C31.3821 0.317201 30.2781 0.00959346 29.1552 0.0273379C28.0323 0.0450824 26.9386 0.38742 26.006 1.01304C24.8964 0.527669 23.6503 0.453004 22.4907 0.802404C21.3311 1.1518 20.3337 1.90246 19.677 2.92004C18.4194 2.9647 17.2227 3.47274 16.3171 4.34645C15.4114 5.22015 14.8608 6.39784 14.771 7.65304C14.0485 8.27574 13.5155 9.08901 13.233 10H10C8.93913 10 7.92172 10.4215 7.17157 11.1716C6.42143 11.9218 6 12.9392 6 14V56C6 57.0609 6.42143 58.0783 7.17157 58.8285C7.92172 59.5786 8.93913 60 10 60ZM16.335 8.96804C16.4707 8.87416 16.5811 8.74814 16.6563 8.60122C16.7316 8.4543 16.7692 8.29105 16.766 8.12604L16.759 8.00004C16.7635 7.18081 17.0921 6.39668 17.673 5.81899C18.2538 5.2413 19.0398 4.91702 19.859 4.91704C19.959 4.91704 20.059 4.92304 20.159 4.93204C20.364 4.9517 20.57 4.9076 20.749 4.80576C20.928 4.70391 21.0712 4.5493 21.159 4.36304C21.345 3.96765 21.6124 3.61603 21.9438 3.33126C22.2752 3.04649 22.6631 2.83499 23.0819 2.71063C23.5008 2.58627 23.9412 2.55187 24.3743 2.60967C24.8074 2.66747 25.2234 2.81618 25.595 3.04604C25.7781 3.15831 25.9926 3.20863 26.2065 3.18954C26.4205 3.17045 26.6226 3.08296 26.783 2.94004C27.4407 2.37154 28.2747 2.04794 29.1436 2.02406C30.0126 2.00019 30.8631 2.27751 31.551 2.80904C31.6879 2.91814 31.8509 2.98941 32.024 3.01573C32.197 3.04205 32.3739 3.0225 32.537 2.95904C33.5007 2.58765 34.5497 2.49555 35.5634 2.6933C36.5771 2.89106 37.5145 3.37065 38.268 4.07704C38.4406 4.24026 38.6657 4.33668 38.903 4.34904C39.6462 4.37794 40.3754 4.56073 41.0444 4.88586C41.7134 5.21099 42.3076 5.67137 42.7896 6.23791C43.2715 6.80445 43.6307 7.46483 43.8444 8.17728C44.0581 8.88973 44.1216 9.63877 44.031 10.377C44.0035 10.6131 44.0609 10.8512 44.1931 11.0488C44.3252 11.2463 44.5233 11.3903 44.752 11.455C45.2123 11.5892 45.6351 11.8288 45.9866 12.1549C46.3381 12.481 46.6088 12.8845 46.7771 13.3335C46.9454 13.7825 47.0066 14.2645 46.956 14.7413C46.9054 15.2181 46.7444 15.6766 46.4856 16.0803C46.2268 16.4839 45.8775 16.8217 45.4654 17.0667C45.0532 17.3118 44.5896 17.4574 44.1114 17.4919C43.6332 17.5264 43.1535 17.449 42.7104 17.2657C42.2673 17.0824 41.8731 16.7983 41.559 16.436C41.4501 16.3113 41.312 16.2155 41.157 16.1574C41.002 16.0992 40.8349 16.0804 40.6709 16.1027C40.5068 16.125 40.3509 16.1877 40.217 16.2852C40.0832 16.3826 39.9756 16.5118 39.904 16.661C39.5154 17.4684 38.9672 18.1887 38.2925 18.7783C37.6178 19.368 36.8307 19.8149 35.9786 20.092C35.1265 20.3691 34.227 20.4706 33.3346 20.3905C32.4421 20.3105 31.5752 20.0504 30.786 19.626C30.5562 19.5022 30.2871 19.4732 30.0361 19.5451C29.7852 19.6171 29.5723 19.7843 29.443 20.011C29.0469 20.704 28.4649 21.2724 27.7627 21.6521C27.0606 22.0317 26.2663 22.2074 25.4695 22.1594C24.6727 22.1113 23.9053 21.8414 23.2538 21.3801C22.6024 20.9189 22.0929 20.2846 21.783 19.549C21.5325 18.9365 21.4225 18.2757 21.461 17.615C21.553 15.656 23.632 14 26 14H30C30.2667 14.0154 30.5336 13.9742 30.7832 13.8792C31.0328 13.7841 31.2595 13.6373 31.4484 13.4484C31.6373 13.2596 31.7841 13.0329 31.8791 12.7832C31.9742 12.5336 32.0154 12.2667 32 12L32.009 11H34C34.2652 11 34.5196 10.8947 34.7071 10.7071C34.8946 10.5196 35 10.2653 35 10C35 9.73482 34.8946 9.48047 34.7071 9.29293C34.5196 9.10539 34.2652 9.00004 34 9.00004H32C31.7333 8.98464 31.4664 9.02583 31.2168 9.12089C30.9672 9.21596 30.7405 9.36275 30.5516 9.55163C30.3627 9.74051 30.2159 9.9672 30.1209 10.2168C30.0258 10.4665 29.9846 10.7334 30 11L29.991 12H26C22.54 12 19.606 14.476 19.461 17.519C19.452 17.697 19.461 17.87 19.461 18.043C18.3978 17.9461 17.4098 17.4534 16.6925 16.6627C15.9753 15.8719 15.5811 14.8406 15.588 13.773C15.588 13.763 15.595 13.665 15.595 13.654C15.6024 13.4568 15.5517 13.2617 15.449 13.093C15.0384 12.4235 14.9012 11.6217 15.0658 10.8537C15.2304 10.0857 15.6841 9.41054 16.333 8.96804H16.335ZM44 19.79C43.9419 20.9596 43.4235 22.0588 42.558 22.8475C41.6924 23.6363 40.55 24.0506 39.38 24C39.308 24.0035 39.2357 24.0015 39.164 23.994C39.1194 23.9863 39.0743 23.9816 39.029 23.98C38.7705 23.9702 38.5136 23.9351 38.262 23.875C37.2221 23.6425 36.2926 23.0622 35.627 22.23C37.8357 21.7841 39.7846 20.4972 41.062 18.641C41.9024 19.2014 42.8899 19.5003 43.9 19.5C43.929 19.5 43.955 19.492 43.983 19.492C43.986 19.591 44 19.69 44 19.79ZM33.37 22.39C33.8065 23.26 34.4331 24.0206 35.2034 24.6156C35.9737 25.2105 36.868 25.6246 37.82 25.827C37.883 25.841 37.939 25.848 38 25.86V29.05C37.9992 29.2545 37.9327 29.4533 37.8103 29.6171C37.688 29.7809 37.5162 29.9011 37.3204 29.9599C37.1246 30.0187 36.9151 30.013 36.7227 29.9438C36.5304 29.8745 36.3653 29.7452 36.252 29.575L33.424 25.339C33.152 24.9265 32.7816 24.5881 32.3462 24.3544C31.9108 24.1206 31.4242 23.9989 30.93 24H30.5C30.2168 23.9998 29.9394 23.9194 29.6999 23.7681C29.4605 23.6168 29.2688 23.4008 29.147 23.145C29.7218 22.7736 30.2319 22.3104 30.657 21.774C31.5223 22.1238 32.4384 22.3325 33.37 22.39ZM8 14C8 13.4696 8.21071 12.9609 8.58579 12.5858C8.96086 12.2108 9.46957 12 10 12H13.031C13.0946 12.6487 13.2831 13.2789 13.586 13.856C13.5973 15.5087 14.2607 17.0901 15.4319 18.2562C16.6031 19.4223 18.1873 20.0789 19.84 20.083C19.85 20.111 19.866 20.135 19.877 20.163C19.907 20.241 19.929 20.322 19.963 20.399C19.9885 20.4497 20.0186 20.4979 20.053 20.543C20.6651 21.8792 21.7313 22.955 23.0618 23.5792C24.3924 24.2033 25.9012 24.3355 27.32 23.952C27.5973 24.5628 28.0446 25.0808 28.6086 25.444C29.1726 25.8072 29.8292 26.0003 30.5 26H30.93C31.0941 25.9996 31.2558 26.0401 31.4003 26.1178C31.5449 26.1954 31.6678 26.3079 31.758 26.445L34.588 30.685C34.9395 31.2124 35.4512 31.6127 36.0477 31.8268C36.6441 32.041 37.2936 32.0577 37.9003 31.8744C38.5069 31.6911 39.0386 31.3176 39.4167 30.809C39.7948 30.3005 39.9993 29.6838 40 29.05V25.971C41.591 25.8752 43.0887 25.188 44.1989 24.0443C45.309 22.9006 45.9515 21.3832 46 19.79C45.9977 19.5472 45.9804 19.3047 45.948 19.064C46.8529 18.6693 47.6234 18.0198 48.1653 17.1946C48.7073 16.3694 48.9973 15.4043 49 14.417C48.9956 13.5708 48.7776 12.7394 48.366 12H50C50.5304 12 51.0391 12.2108 51.4142 12.5858C51.7893 12.9609 52 13.4696 52 14V56C52 56.5305 51.7893 57.0392 51.4142 57.4143C51.0391 57.7893 50.5304 58 50 58H10C9.46957 58 8.96086 57.7893 8.58579 57.4143C8.21071 57.0392 8 56.5305 8 56V14Z" fill="black"/>
<path d="M14 40H22C22.7956 40 23.5587 39.6839 24.1213 39.1213C24.6839 38.5587 25 37.7956 25 37V29C25 28.2044 24.6839 27.4413 24.1213 26.8787C23.5587 26.3161 22.7956 26 22 26H14C13.2044 26 12.4413 26.3161 11.8787 26.8787C11.3161 27.4413 11 28.2044 11 29V37C11 37.7956 11.3161 38.5587 11.8787 39.1213C12.4413 39.6839 13.2044 40 14 40ZM13 29C13 28.7348 13.1054 28.4804 13.2929 28.2929C13.4804 28.1054 13.7348 28 14 28H22C22.2652 28 22.5196 28.1054 22.7071 28.2929C22.8946 28.4804 23 28.7348 23 29V37C23 37.2652 22.8946 37.5196 22.7071 37.7071C22.5196 37.8946 22.2652 38 22 38H14C13.7348 38 13.4804 37.8946 13.2929 37.7071C13.1054 37.5196 13 37.2652 13 37V29Z" fill="black"/>
<path d="M14 56H22C22.7956 56 23.5587 55.6839 24.1213 55.1213C24.6839 54.5587 25 53.7956 25 53V45C25 44.2044 24.6839 43.4413 24.1213 42.8787C23.5587 42.3161 22.7956 42 22 42H14C13.2044 42 12.4413 42.3161 11.8787 42.8787C11.3161 43.4413 11 44.2044 11 45V53C11 53.7956 11.3161 54.5587 11.8787 55.1213C12.4413 55.6839 13.2044 56 14 56ZM13 45C13 44.7348 13.1054 44.4804 13.2929 44.2929C13.4804 44.1054 13.7348 44 14 44H22C22.2652 44 22.5196 44.1054 22.7071 44.2929C22.8946 44.4804 23 44.7348 23 45V53C23 53.2652 22.8946 53.5196 22.7071 53.7071C22.5196 53.8946 22.2652 54 22 54H14C13.7348 54 13.4804 53.8946 13.2929 53.7071C13.1054 53.5196 13 53.2652 13 53V45Z" fill="black"/>
<path d="M16.293 35.707C16.4805 35.8946 16.7348 35.9999 17 36H17.071C17.2141 35.9895 17.3532 35.9484 17.479 35.8794C17.6048 35.8103 17.7143 35.7151 17.8 35.6L20.8 31.6C20.8788 31.4949 20.9361 31.3754 20.9687 31.2482C21.0013 31.121 21.0085 30.9886 20.9899 30.8586C20.9714 30.7286 20.9274 30.6035 20.8605 30.4905C20.7935 30.3775 20.705 30.2788 20.6 30.2C20.4949 30.1212 20.3754 30.0639 20.2482 30.0313C20.1209 29.9987 19.9886 29.9915 19.8586 30.0101C19.7286 30.0286 19.6035 30.0726 19.4905 30.1395C19.3775 30.2064 19.2788 30.2949 19.2 30.4L16.892 33.478L16.707 33.293C16.5184 33.1108 16.2658 33.01 16.0036 33.0123C15.7414 33.0146 15.4906 33.1198 15.3052 33.3052C15.1198 33.4906 15.0146 33.7414 15.0123 34.0036C15.01 34.2658 15.1108 34.5184 15.293 34.707L16.293 35.707Z" fill="black"/>
<path d="M16.293 51.707C16.4805 51.8946 16.7348 51.9999 17 52H17.071C17.2141 51.9895 17.3532 51.9484 17.479 51.8794C17.6048 51.8103 17.7143 51.7151 17.8 51.6L20.8 47.6C20.9591 47.3878 21.0274 47.1211 20.9899 46.8586C20.9524 46.596 20.8122 46.3591 20.6 46.2C20.3878 46.0409 20.1211 45.9725 19.8586 46.0101C19.596 46.0476 19.3591 46.1878 19.2 46.4L16.892 49.478L16.707 49.293C16.5184 49.1108 16.2658 49.01 16.0036 49.0123C15.7414 49.0146 15.4906 49.1198 15.3052 49.3052C15.1198 49.4906 15.0146 49.7414 15.0123 50.0036C15.01 50.2658 15.1108 50.5184 15.293 50.707L16.293 51.707Z" fill="black"/>
<path d="M43 31H48C48.2652 31 48.5196 30.8946 48.7071 30.7071C48.8946 30.5196 49 30.2652 49 30C49 29.7348 48.8946 29.4804 48.7071 29.2929C48.5196 29.1054 48.2652 29 48 29H43C42.7348 29 42.4804 29.1054 42.2929 29.2929C42.1054 29.4804 42 29.7348 42 30C42 30.2652 42.1054 30.5196 42.2929 30.7071C42.4804 30.8946 42.7348 31 43 31Z" fill="black"/>
<path d="M29 36H43C43.2652 36 43.5196 35.8946 43.7071 35.7071C43.8946 35.5196 44 35.2652 44 35C44 34.7348 43.8946 34.4804 43.7071 34.2929C43.5196 34.1054 43.2652 34 43 34H29C28.7348 34 28.4804 34.1054 28.2929 34.2929C28.1054 34.4804 28 34.7348 28 35C28 35.2652 28.1054 35.5196 28.2929 35.7071C28.4804 35.8946 28.7348 36 29 36Z" fill="black"/>
<path d="M29 31H30C30.2652 31 30.5196 30.8946 30.7071 30.7071C30.8946 30.5196 31 30.2652 31 30C31 29.7348 30.8946 29.4804 30.7071 29.2929C30.5196 29.1054 30.2652 29 30 29H29C28.7348 29 28.4804 29.1054 28.2929 29.2929C28.1054 29.4804 28 29.7348 28 30C28 30.2652 28.1054 30.5196 28.2929 30.7071C28.4804 30.8946 28.7348 31 29 31Z" fill="black"/>
<path d="M29 52H43C43.2652 52 43.5196 51.8946 43.7071 51.7071C43.8946 51.5196 44 51.2652 44 51C44 50.7348 43.8946 50.4804 43.7071 50.2929C43.5196 50.1054 43.2652 50 43 50H29C28.7348 50 28.4804 50.1054 28.2929 50.2929C28.1054 50.4804 28 50.7348 28 51C28 51.2652 28.1054 51.5196 28.2929 51.7071C28.4804 51.8946 28.7348 52 29 52Z" fill="black"/>
<path d="M48 45H47C46.7348 45 46.4804 45.1054 46.2929 45.2929C46.1054 45.4804 46 45.7348 46 46C46 46.2652 46.1054 46.5196 46.2929 46.7071C46.4804 46.8946 46.7348 47 47 47H48C48.2652 47 48.5196 46.8946 48.7071 46.7071C48.8946 46.5196 49 46.2652 49 46C49 45.7348 48.8946 45.4804 48.7071 45.2929C48.5196 45.1054 48.2652 45 48 45Z" fill="black"/>
<path d="M29 47H43C43.2652 47 43.5196 46.8946 43.7071 46.7071C43.8946 46.5196 44 46.2652 44 46C44 45.7348 43.8946 45.4804 43.7071 45.2929C43.5196 45.1054 43.2652 45 43 45H29C28.7348 45 28.4804 45.1054 28.2929 45.2929C28.1054 45.4804 28 45.7348 28 46C28 46.2652 28.1054 46.5196 28.2929 46.7071C28.4804 46.8946 28.7348 47 29 47Z" fill="black"/>
</g>
<defs>
<clipPath id="clip0_20_276">
<rect width="60" height="60" fill="white"/>
</clipPath>
</defs>
</svg>
