<svg width="60" height="60" viewBox="0 0 60 60" fill="none" xmlns="http://www.w3.org/2000/svg">
<g clip-path="url(#clip0_20_263)">
<path d="M54.919 19.7359C54.6644 17.5528 53.7631 15.4957 52.3308 13.8286C50.8986 12.1615 49.0008 10.9605 46.881 10.3799C46.5232 7.76982 45.3164 5.35004 43.4468 3.49392C41.5772 1.6378 39.1488 0.4485 36.5362 0.109528C33.9236 -0.229443 31.2721 0.300755 28.9908 1.61831C26.7094 2.93587 24.9251 4.96755 23.913 7.39988C22.9646 7.13516 21.9846 7.00059 21 6.99988C18.9718 6.99781 16.9827 7.55728 15.2529 8.6163C13.5232 9.67533 12.1204 11.1926 11.2 12.9999C11.133 12.9999 11.065 12.9999 11 12.9999C8.08262 12.9999 5.28473 14.1588 3.22183 16.2217C1.15893 18.2846 0 21.0825 0 23.9999C0 26.9173 1.15893 29.7152 3.22183 31.7781C5.28473 33.841 8.08262 34.9999 11 34.9999H11.035C11.2209 37.5898 12.1233 40.077 13.6415 42.1834C15.1597 44.2899 17.2338 45.9327 19.632 46.9281C22.0302 47.9235 24.658 48.2324 27.2216 47.8202C29.7852 47.408 32.1837 46.2909 34.149 44.5939C36.0917 46.1533 38.5089 47.0022 41 46.9999C43.2598 46.9895 45.4624 46.2877 47.3117 44.9888C49.161 43.6899 50.5685 41.8562 51.345 39.7339C53.4725 39.2725 55.4148 38.1894 56.9256 36.622C58.4364 35.0547 59.4474 33.0738 59.8304 30.9309C60.2133 28.7879 59.9509 26.5795 59.0765 24.5859C58.202 22.5924 56.755 20.9036 54.919 19.7339V19.7359ZM51.892 37.5079C51.9626 37.0083 51.9987 36.5044 52 35.9999C52 35.7347 51.8946 35.4803 51.7071 35.2928C51.5196 35.1052 51.2652 34.9999 51 34.9999C50.7348 34.9999 50.4804 35.1052 50.2929 35.2928C50.1054 35.4803 50 35.7347 50 35.9999C50.0032 37.6761 49.5373 39.3197 48.655 40.745C47.7727 42.1702 46.5093 43.3202 45.0075 44.0648C43.5058 44.8094 41.8257 45.119 40.1572 44.9586C38.4887 44.7981 36.8983 44.174 35.566 43.1569C36.0158 42.648 36.4282 42.1072 36.8 41.5389C36.943 41.3153 36.9912 41.0441 36.9342 40.7849C36.8772 40.5257 36.7196 40.2998 36.496 40.1569C36.2724 40.0139 36.0012 39.9656 35.742 40.0227C35.4829 40.0797 35.257 40.2373 35.114 40.4609C34.6343 41.2107 34.0725 41.9046 33.439 42.5299L33.428 42.5379C31.7423 44.2011 29.6021 45.3283 27.277 45.7777C24.952 46.2271 22.5459 45.9784 20.3618 45.0631C18.1778 44.1478 16.3133 42.6068 15.0033 40.634C13.6933 38.6612 12.9963 36.345 13 33.9769C13.0011 33.0517 13.1085 32.1296 13.32 31.2289C13.3501 31.101 13.3547 30.9685 13.3335 30.8389C13.3124 30.7093 13.2659 30.5851 13.1968 30.4734C13.1277 30.3618 13.0372 30.2648 12.9306 30.1881C12.824 30.1114 12.7033 30.0565 12.5755 30.0264C12.4477 29.9963 12.3151 29.9917 12.1855 30.0128C12.0559 30.034 11.9317 30.0805 11.8201 30.1496C11.7084 30.2187 11.6114 30.3092 11.5347 30.4158C11.458 30.5224 11.4031 30.643 11.373 30.7709C11.208 31.5041 11.1026 32.2496 11.058 32.9999C11.038 32.9999 11.02 32.9999 11 32.9999C8.61305 32.9999 6.32387 32.0517 4.63604 30.3638C2.94821 28.676 2 26.3868 2 23.9999C2 21.6129 2.94821 19.3237 4.63604 17.6359C6.32387 15.9481 8.61305 14.9999 11 14.9999C11.255 14.9999 11.5 15.0189 11.745 15.0369C11.752 15.0374 11.759 15.0374 11.766 15.0369C12.4222 15.0911 13.0705 15.2175 13.699 15.4139C13.7961 15.4441 13.8973 15.4596 13.999 15.4599C14.238 15.4599 14.469 15.3744 14.6504 15.2188C14.8317 15.0632 14.9514 14.8478 14.9876 14.6116C15.0239 14.3755 14.9744 14.1341 14.848 13.9313C14.7217 13.7284 14.527 13.5775 14.299 13.5059C13.988 13.4059 13.668 13.3349 13.347 13.2659C14.44 11.4887 16.1188 10.1486 18.0941 9.47682C20.0694 8.80502 22.2171 8.84359 24.167 9.58588C24.182 9.59188 24.198 9.58588 24.213 9.59288C24.9949 9.89092 25.7311 10.2972 26.4 10.7999C26.5051 10.8787 26.6246 10.936 26.7518 10.9686C26.879 11.0012 27.0114 11.0084 27.1414 10.9898C27.2714 10.9713 27.3965 10.9273 27.5095 10.8604C27.6225 10.7934 27.7212 10.7049 27.8 10.5999C27.8788 10.4948 27.9361 10.3753 27.9687 10.2481C28.0013 10.1208 28.0085 9.98846 27.99 9.85846C27.9714 9.72846 27.9274 9.60339 27.8605 9.49039C27.7936 9.37739 27.7051 9.27867 27.6 9.19988C27.0305 8.78224 26.422 8.42057 25.783 8.11988C26.6531 6.0505 28.1946 4.33432 30.1591 3.24789C32.1235 2.16147 34.3966 1.76807 36.6119 2.1311C38.8272 2.49412 40.8558 3.59242 42.3708 5.24901C43.8858 6.90561 44.7989 9.02402 44.963 11.2629C44.9664 11.2804 44.9707 11.2978 44.976 11.3149C44.991 11.5409 45 11.7699 45 11.9999C44.9998 12.6099 44.9446 13.2187 44.835 13.8189C44.7871 14.0793 44.8444 14.3481 44.9944 14.5663C45.1443 14.7845 45.3747 14.9343 45.635 14.9829C45.6946 14.9944 45.7553 15.0001 45.816 14.9999C46.0497 14.9998 46.276 14.9178 46.4556 14.7682C46.6352 14.6186 46.7567 14.4108 46.799 14.1809C46.896 13.6283 46.9544 13.0696 46.974 12.5089C48.3481 12.9948 49.5838 13.8068 50.5751 14.8752C51.5665 15.9435 52.284 17.2364 52.666 18.6429C52.542 18.5989 52.422 18.5429 52.297 18.5039C52.044 18.4243 51.7697 18.4485 51.5346 18.5712C51.2994 18.6938 51.1226 18.9049 51.043 19.1579C50.9634 19.4109 50.9876 19.6852 51.1103 19.9203C51.2329 20.1555 51.444 20.3323 51.697 20.4119C52.301 20.6028 52.8833 20.8568 53.434 21.1699C53.447 21.1779 53.457 21.1899 53.47 21.1969C54.9734 22.0556 56.1966 23.3305 56.9924 24.8681C57.7883 26.4057 58.1228 28.1405 57.9558 29.8638C57.7887 31.5871 57.1272 33.2254 56.0509 34.5815C54.9746 35.9377 53.5293 36.9539 51.889 37.5079H51.892Z" fill="black"/>
<path d="M52 52.5C52 51.61 51.7361 50.74 51.2416 49.9999C50.7471 49.2599 50.0443 48.6831 49.2221 48.3425C48.3998 48.0019 47.495 47.9128 46.6221 48.0865C45.7492 48.2601 44.9474 48.6887 44.318 49.318C43.6887 49.9474 43.2601 50.7492 43.0865 51.6221C42.9128 52.495 43.0019 53.3998 43.3425 54.2221C43.6831 55.0443 44.2599 55.7471 44.9999 56.2416C45.74 56.7361 46.61 57 47.5 57C48.6931 56.9987 49.8369 56.5241 50.6805 55.6805C51.5241 54.8369 51.9987 53.6931 52 52.5ZM45 52.5C45 52.0055 45.1466 51.5222 45.4213 51.1111C45.696 50.7 46.0865 50.3795 46.5433 50.1903C47.0001 50.0011 47.5028 49.9516 47.9877 50.048C48.4727 50.1445 48.9181 50.3826 49.2678 50.7322C49.6174 51.0819 49.8555 51.5273 49.952 52.0123C50.0484 52.4972 49.9989 52.9999 49.8097 53.4567C49.6205 53.9135 49.3001 54.304 48.8889 54.5787C48.4778 54.8534 47.9945 55 47.5 55C46.837 55 46.2011 54.7366 45.7322 54.2678C45.2634 53.7989 45 53.163 45 52.5Z" fill="black"/>
<path d="M56.5 53C55.8078 53 55.1311 53.2053 54.5555 53.5899C53.9799 53.9744 53.5313 54.5211 53.2664 55.1606C53.0015 55.8001 52.9322 56.5039 53.0673 57.1828C53.2023 57.8617 53.5356 58.4854 54.0251 58.9749C54.5146 59.4644 55.1383 59.7977 55.8172 59.9327C56.4961 60.0678 57.1999 59.9985 57.8394 59.7336C58.4789 59.4687 59.0256 59.0201 59.4101 58.4445C59.7947 57.8689 60 57.1922 60 56.5C60 55.5717 59.6312 54.6815 58.9749 54.0251C58.3185 53.3688 57.4283 53 56.5 53ZM56.5 58C56.2033 58 55.9133 57.912 55.6666 57.7472C55.42 57.5824 55.2277 57.3481 55.1142 57.074C55.0007 56.7999 54.9709 56.4983 55.0288 56.2074C55.0867 55.9164 55.2296 55.6491 55.4393 55.4393C55.6491 55.2296 55.9164 55.0867 56.2074 55.0288C56.4983 54.9709 56.7999 55.0007 57.074 55.1142C57.3481 55.2277 57.5824 55.42 57.7472 55.6666C57.912 55.9133 58 56.2033 58 56.5C58 56.8978 57.842 57.2794 57.5607 57.5607C57.2794 57.842 56.8978 58 56.5 58Z" fill="black"/>
<path d="M27 22.5C27 22.7652 27.1054 23.0196 27.2929 23.2071C27.4804 23.3946 27.7348 23.5 28 23.5C28.2652 23.5 28.5196 23.3946 28.7071 23.2071C28.8946 23.0196 29 22.7652 29 22.5C29 21.0413 28.4205 19.6424 27.3891 18.6109C26.3576 17.5795 24.9587 17 23.5 17C22.0413 17 20.6424 17.5795 19.6109 18.6109C18.5795 19.6424 18 21.0413 18 22.5C18 22.7652 18.1054 23.0196 18.2929 23.2071C18.4804 23.3946 18.7348 23.5 19 23.5C19.2652 23.5 19.5196 23.3946 19.7071 23.2071C19.8946 23.0196 20 22.7652 20 22.5C20 21.5717 20.3687 20.6815 21.0251 20.0251C21.6815 19.3687 22.5717 19 23.5 19C24.4283 19 25.3185 19.3687 25.9749 20.0251C26.6313 20.6815 27 21.5717 27 22.5Z" fill="black"/>
<path d="M38.5 17C37.0419 17.0019 35.644 17.5819 34.613 18.613C33.5819 19.644 33.0019 21.0419 33 22.5C33 22.7652 33.1054 23.0196 33.2929 23.2071C33.4804 23.3946 33.7348 23.5 34 23.5C34.2652 23.5 34.5196 23.3946 34.7071 23.2071C34.8946 23.0196 35 22.7652 35 22.5C35 21.5717 35.3688 20.6815 36.0251 20.0251C36.6815 19.3687 37.5717 19 38.5 19C39.4283 19 40.3185 19.3687 40.9749 20.0251C41.6313 20.6815 42 21.5717 42 22.5C42 22.7652 42.1054 23.0196 42.2929 23.2071C42.4804 23.3946 42.7348 23.5 43 23.5C43.2652 23.5 43.5196 23.3946 43.7071 23.2071C43.8946 23.0196 44 22.7652 44 22.5C43.9981 21.0419 43.4181 19.644 42.387 18.613C41.356 17.5819 39.9581 17.0019 38.5 17Z" fill="black"/>
<path d="M38.231 29.36C37.3722 30.4662 36.2774 31.3669 35.0266 31.9966C33.7757 32.6263 32.4001 32.9691 31 33C29.5999 32.9691 28.2243 32.6263 26.9734 31.9966C25.7225 31.3669 24.6278 30.4662 23.769 29.36C23.6849 29.259 23.5818 29.1756 23.4655 29.1144C23.3492 29.0533 23.222 29.0157 23.0912 29.0037C22.9604 28.9917 22.8285 29.0056 22.703 29.0446C22.5775 29.0836 22.461 29.1469 22.36 29.231C22.259 29.315 22.1756 29.4182 22.1144 29.5344C22.0533 29.6507 22.0157 29.7779 22.0037 29.9088C21.9917 30.0396 22.0056 30.1715 22.0446 30.297C22.0836 30.4225 22.1469 30.539 22.231 30.64C23.2762 31.9733 24.6058 33.0566 26.1228 33.8108C27.6399 34.5651 29.3061 34.9714 31 35C32.6939 34.9714 34.3601 34.5651 35.8771 33.8108C37.3942 33.0566 38.7237 31.9733 39.769 30.64C39.9387 30.436 40.0205 30.173 39.9963 29.9088C39.9721 29.6445 39.8439 29.4007 39.64 29.231C39.436 29.0613 39.173 28.9795 38.9088 29.0037C38.6445 29.0279 38.4007 29.156 38.231 29.36Z" fill="black"/>
</g>
<defs>
<clipPath id="clip0_20_263">
<rect width="60" height="60" fill="white"/>
</clipPath>
</defs>
</svg>
