<svg width="60" height="60" viewBox="0 0 60 60" fill="none" xmlns="http://www.w3.org/2000/svg">
<g clip-path="url(#clip0_20_271)">
<path d="M43 26C40.2084 25.9983 37.4599 26.6882 35 28.008V15C35 11.0218 33.4196 7.20644 30.6066 4.3934C27.7936 1.58035 23.9782 0 20 0C16.0218 0 12.2064 1.58035 9.3934 4.3934C6.58035 7.20644 5 11.0218 5 15V32C5 32.7957 5.31607 33.5587 5.87868 34.1213C6.44129 34.6839 7.20435 35 8 35H11.366L11.117 37H10C7.34873 37.0029 4.80688 38.0574 2.93215 39.9321C1.05742 41.8069 0.0029116 44.3487 0 47L0 57C0 57.7957 0.31607 58.5587 0.87868 59.1213C1.44129 59.6839 2.20435 60 3 60H43C47.5087 60 51.8327 58.2089 55.0208 55.0208C58.2089 51.8327 60 47.5087 60 43C60 38.4913 58.2089 34.1673 55.0208 30.9792C51.8327 27.7911 47.5087 26 43 26ZM28.527 34.127L28.227 31.727C29.2315 30.0938 30.0979 28.3795 30.817 26.602C31.5194 26.5138 32.1735 26.1977 32.679 25.702C32.7978 25.5778 32.9052 25.4433 33 25.3V29.28C31.2084 30.5899 29.6891 32.2362 28.527 34.127ZM7 18.13C6.99062 17.8623 7.04549 17.5962 7.16 17.354C7.21231 17.2379 7.2916 17.1359 7.39126 17.0566C7.49093 16.9773 7.60809 16.9229 7.733 16.898C7.77806 16.8916 7.82349 16.8883 7.869 16.888C8.04098 16.8914 8.20979 16.9349 8.362 17.015C8.51034 17.0881 8.67433 17.1236 8.83961 17.1186C9.00489 17.1135 9.1664 17.068 9.31 16.986C9.45273 16.9041 9.57305 16.7882 9.66027 16.6487C9.74749 16.5091 9.79892 16.3502 9.81 16.186L9.86 15.346C9.88784 14.9184 10.0516 14.5109 10.3274 14.183C10.6032 13.855 10.9765 13.6238 11.393 13.523C14.5333 12.7865 17.4723 11.3657 20 9.362C22.5306 11.3652 25.4723 12.785 28.615 13.52C29.0303 13.6214 29.4023 13.8526 29.677 14.1802C29.9517 14.5077 30.1146 14.9144 30.142 15.341L30.192 16.181C30.2019 16.3461 30.2527 16.5062 30.3397 16.6469C30.4267 16.7876 30.5473 16.9045 30.6906 16.9871C30.8339 17.0698 30.9954 17.1156 31.1608 17.1204C31.3261 17.1253 31.4901 17.0891 31.638 17.015C31.8287 16.9109 32.0474 16.8696 32.263 16.897C32.3876 16.9209 32.5047 16.9741 32.6047 17.0521C32.7046 17.1302 32.7846 17.2309 32.838 17.346C32.9699 17.7391 33.0135 18.1564 32.9658 18.5683C32.9181 18.9802 32.7802 19.3765 32.562 19.729C32.362 20.148 32.196 20.524 32.062 20.859C31.7334 21.6775 31.5637 22.551 31.562 23.433C31.5671 23.7485 31.4548 24.0546 31.247 24.292C31.089 24.4238 30.9065 24.5232 30.71 24.5845C30.5136 24.6457 30.3069 24.6676 30.102 24.649C29.8965 24.6491 29.696 24.7125 29.5278 24.8306C29.3596 24.9487 29.2319 25.1157 29.162 25.309C28.091 28.283 24.339 36 20 36C15.661 36 11.909 28.283 10.83 25.31C10.7601 25.1167 10.6324 24.9497 10.4642 24.8316C10.296 24.7135 10.0955 24.6501 9.89 24.65C9.6841 24.6691 9.47646 24.6472 9.27907 24.5856C9.08168 24.524 8.89846 24.4238 8.74 24.291C8.53303 24.0493 8.42577 23.7379 8.44 23.42C8.43799 23.1264 8.41796 22.8332 8.38 22.542C8.29576 21.9654 8.14579 21.4004 7.933 20.858C7.804 20.525 7.643 20.149 7.433 19.729C7.17217 19.2389 7.02423 18.6967 7 18.142V18.13ZM26.6 38.578C25.944 39.513 24.23 41 20 41C14.52 41 13.247 38.518 13.019 37.912L13.488 34.147C15.239 36.283 17.442 38 20 38C22.558 38 24.762 36.282 26.514 34.145L26.933 37.494C26.81 37.85 26.7 38.212 26.6 38.578ZM20 43C22.1072 43.0847 24.1998 42.6155 26.069 41.639C26.033 42.089 26 42.539 26 43C26 43.2 26.023 43.394 26.03 43.593C24.4941 48.2668 22.4731 52.767 20 57.02C18.309 54.05 14.587 47.077 13.385 41.301C15.3635 42.5324 17.6729 43.1256 20 43ZM20 2C21.7072 2 23.3977 2.33626 24.9749 2.98957C26.5521 3.64288 27.9852 4.60045 29.1924 5.80761C30.3995 7.01477 31.3571 8.44788 32.0104 10.0251C32.6637 11.6023 33 13.2928 33 15V15.043C32.8611 14.9914 32.7183 14.9509 32.573 14.922C32.4188 14.8901 32.2611 14.879 32.104 14.889C31.9899 14.1029 31.6443 13.3686 31.1112 12.7796C30.5782 12.1906 29.8819 11.7737 29.111 11.582C26.576 10.924 23.061 9.646 20.711 7.293C20.5235 7.10553 20.2692 7.00021 20.004 7.00021C19.7388 7.00021 19.4845 7.10553 19.297 7.293C16.943 9.646 13.428 10.924 10.897 11.58C10.1246 11.7707 9.42653 12.1873 8.89213 12.7768C8.35774 13.3662 8.01126 14.1016 7.897 14.889C7.73626 14.8856 7.57555 14.8973 7.417 14.924C7.27508 14.9535 7.13566 14.9939 7 15.045V15C7.00397 11.5534 8.37488 8.24911 10.812 5.812C13.2491 3.37488 16.5534 2.00397 20 2ZM8 33C7.73478 33 7.48043 32.8946 7.29289 32.7071C7.10536 32.5196 7 32.2652 7 32V25.306C7.09136 25.4412 7.19406 25.5683 7.307 25.686C7.81406 26.1903 8.47432 26.5118 9.184 26.6C9.90341 28.377 10.7697 30.091 11.774 31.724L11.615 33H8ZM2 57V47C2.00238 44.879 2.846 42.8456 4.34578 41.3458C5.84555 39.846 7.879 39.0024 10 39H11.04C11.5 45.567 16.229 54.464 18.251 58H3C2.73478 58 2.48043 57.8946 2.29289 57.7071C2.10536 57.5196 2 57.2652 2 57ZM21.748 58C23.6356 54.7126 25.2903 51.2969 26.7 47.778C27.3396 49.948 28.4043 51.9692 29.8321 53.7241C31.2599 55.479 33.0224 56.9324 35.017 58H21.748ZM43 58C40.0333 58 37.1332 57.1203 34.6664 55.472C32.1997 53.8238 30.2771 51.4811 29.1418 48.7402C28.0065 45.9994 27.7094 42.9834 28.2882 40.0736C28.867 37.1639 30.2956 34.4912 32.3934 32.3934C34.4912 30.2956 37.1639 28.867 40.0736 28.2882C42.9834 27.7094 45.9994 28.0065 48.7402 29.1418C51.4811 30.2771 53.8238 32.1997 55.472 34.6664C57.1203 37.1332 58 40.0333 58 43C57.9955 46.9769 56.4137 50.7896 53.6016 53.6016C50.7896 56.4137 46.9769 57.9955 43 58Z" fill="black"/>
<path d="M12 20C12.2652 20 12.5196 19.8946 12.7071 19.7071C12.8946 19.5196 13 19.2652 13 19C13 18.7348 13.1054 18.4804 13.2929 18.2929C13.4804 18.1054 13.7348 18 14 18C14.2652 18 14.5196 18.1054 14.7071 18.2929C14.8946 18.4804 15 18.7348 15 19C15 19.2652 15.1054 19.5196 15.2929 19.7071C15.4804 19.8946 15.7348 20 16 20C16.2652 20 16.5196 19.8946 16.7071 19.7071C16.8946 19.5196 17 19.2652 17 19C17 18.2044 16.6839 17.4413 16.1213 16.8787C15.5587 16.3161 14.7956 16 14 16C13.2044 16 12.4413 16.3161 11.8787 16.8787C11.3161 17.4413 11 18.2044 11 19C11 19.2652 11.1054 19.5196 11.2929 19.7071C11.4804 19.8946 11.7348 20 12 20Z" fill="black"/>
<path d="M24 20C24.2652 20 24.5196 19.8946 24.7071 19.7071C24.8946 19.5196 25 19.2652 25 19C25 18.7348 25.1054 18.4804 25.2929 18.2929C25.4804 18.1054 25.7348 18 26 18C26.2652 18 26.5196 18.1054 26.7071 18.2929C26.8946 18.4804 27 18.7348 27 19C27 19.2652 27.1054 19.5196 27.2929 19.7071C27.4804 19.8946 27.7348 20 28 20C28.2652 20 28.5196 19.8946 28.7071 19.7071C28.8946 19.5196 29 19.2652 29 19C29 18.2044 28.6839 17.4413 28.1213 16.8787C27.5587 16.3161 26.7956 16 26 16C25.2044 16 24.4413 16.3161 23.8787 16.8787C23.3161 17.4413 23 18.2044 23 19C23 19.2652 23.1054 19.5196 23.2929 19.7071C23.4804 19.8946 23.7348 20 24 20Z" fill="black"/>
<path d="M19 26.0001H20.682C21.078 25.998 21.4667 25.8928 21.8098 25.6951C22.1529 25.4973 22.4387 25.2137 22.639 24.8721C22.8614 24.4998 22.9846 24.0767 22.9969 23.6432C23.0091 23.2097 22.91 22.7804 22.709 22.3961C22.6871 22.3539 22.662 22.3135 22.634 22.2751L20.56 19.4131C20.4043 19.1983 20.1697 19.0541 19.9077 19.0123C19.6457 18.9704 19.3778 19.0344 19.163 19.1901C18.9482 19.3458 18.804 19.5804 18.7622 19.8424C18.7204 20.1044 18.7843 20.3723 18.94 20.5871L20.962 23.3761C20.9918 23.4509 21.004 23.5315 20.9977 23.6118C20.9915 23.692 20.967 23.7698 20.926 23.8391C20.9029 23.8849 20.8682 23.9238 20.8254 23.9521C20.7826 23.9803 20.7332 23.9969 20.682 24.0001H19C18.7348 24.0001 18.4804 24.1054 18.2929 24.293C18.1054 24.4805 18 24.7349 18 25.0001C18 25.2653 18.1054 25.5197 18.2929 25.7072C18.4804 25.8947 18.7348 26.0001 19 26.0001Z" fill="black"/>
<path d="M50 33H49C48.4696 33 47.9609 33.2107 47.5858 33.5858C47.2107 33.9609 47 34.4696 47 35V40C47 40.7956 46.6839 41.5587 46.1213 42.1213C45.5587 42.6839 44.7956 43 44 43V35C44.2652 35 44.5196 34.8946 44.7071 34.7071C44.8946 34.5196 45 34.2652 45 34C45 33.7348 44.8946 33.4804 44.7071 33.2929C44.5196 33.1054 44.2652 33 44 33H42C41.7348 33 41.4804 33.1054 41.2929 33.2929C41.1054 33.4804 41 33.7348 41 34C41 34.2652 41.1054 34.5196 41.2929 34.7071C41.4804 34.8946 41.7348 35 42 35V43C41.2044 43 40.4413 42.6839 39.8787 42.1213C39.3161 41.5587 39 40.7956 39 40V35C39 34.4696 38.7893 33.9609 38.4142 33.5858C38.0391 33.2107 37.5304 33 37 33H36C35.7348 33 35.4804 33.1054 35.2929 33.2929C35.1054 33.4804 35 33.7348 35 34C35 34.2652 35.1054 34.5196 35.2929 34.7071C35.4804 34.8946 35.7348 35 36 35H37V40C37.0016 41.3256 37.5289 42.5964 38.4662 43.5338C39.4036 44.4711 40.6744 44.9984 42 45V51C41.7348 51 41.4804 51.1054 41.2929 51.2929C41.1054 51.4804 41 51.7348 41 52C41 52.2652 41.1054 52.5196 41.2929 52.7071C41.4804 52.8946 41.7348 53 42 53H44C44.2652 53 44.5196 52.8946 44.7071 52.7071C44.8946 52.5196 45 52.2652 45 52C45 51.7348 44.8946 51.4804 44.7071 51.2929C44.5196 51.1054 44.2652 51 44 51V45C45.3256 44.9984 46.5964 44.4711 47.5338 43.5338C48.4711 42.5964 48.9984 41.3256 49 40V35H50C50.2652 35 50.5196 34.8946 50.7071 34.7071C50.8946 34.5196 51 34.2652 51 34C51 33.7348 50.8946 33.4804 50.7071 33.2929C50.5196 33.1054 50.2652 33 50 33Z" fill="black"/>
<path d="M16.211 28.3859C16.0491 28.595 15.9767 28.8597 16.0095 29.122C16.0423 29.3844 16.1777 29.6231 16.386 29.7859C17.4271 30.5715 18.6958 30.9964 20 30.9964C21.3042 30.9964 22.5729 30.5715 23.614 29.7859C23.7209 29.7064 23.8108 29.6064 23.8785 29.4918C23.9462 29.3771 23.9903 29.25 24.0082 29.1181C24.0262 28.9861 24.0175 28.8519 23.9829 28.7233C23.9483 28.5947 23.8883 28.4743 23.8065 28.3693C23.7247 28.2642 23.6228 28.1764 23.5066 28.1113C23.3905 28.0461 23.2625 28.0048 23.1302 27.9898C22.9979 27.9748 22.8639 27.9863 22.7361 28.0238C22.6083 28.0612 22.4893 28.1238 22.386 28.2079C21.6895 28.7045 20.8554 28.9714 20 28.9714C19.1446 28.9714 18.3105 28.7045 17.614 28.2079C17.5102 28.1275 17.3915 28.0683 17.2648 28.0337C17.1382 27.9991 17.0059 27.9898 16.8756 28.0063C16.7453 28.0228 16.6196 28.0649 16.5055 28.13C16.3915 28.1951 16.2914 28.2821 16.211 28.3859Z" fill="black"/>
</g>
<defs>
<clipPath id="clip0_20_271">
<rect width="60" height="60" fill="white"/>
</clipPath>
</defs>
</svg>
