<svg width="60" height="60" viewBox="0 0 60 60" fill="none" xmlns="http://www.w3.org/2000/svg">
<g clip-path="url(#clip0_20_272)">
<path d="M10 60H50C50.5304 60 51.0391 59.7893 51.4142 59.4142C51.7893 59.0391 52 58.5304 52 58C51.9984 56.6744 51.4711 55.4036 50.5338 54.4662C49.5964 53.5289 48.3256 53.0016 47 53H39.881L39.55 50.393C40.0756 49.9506 40.5205 49.4204 40.865 48.826C41.4911 47.4762 41.8553 46.0197 41.938 44.534C42.6766 44.4253 43.3472 44.0425 43.8164 43.4618C44.2856 42.881 44.5189 42.145 44.47 41.4C44.4674 40.7842 44.5942 40.1747 44.842 39.611C44.965 39.319 45.125 38.989 45.304 38.633C46.472 36.433 45.982 34.69 45.135 33.797C44.676 33.3129 44.0631 33.0032 43.401 32.921C44.078 30.791 44.954 26.74 43.352 23.208C42.3244 21.0154 40.4925 19.3024 38.236 18.424L42.63 12.16C42.8435 11.8601 42.9701 11.5071 42.9959 11.1399C43.0216 10.7726 42.9455 10.4054 42.776 10.0787C42.6064 9.75193 42.3499 9.47832 42.0348 9.288C41.7197 9.09767 41.3581 8.99801 40.99 9L34.23 8.992L36.366 2.635C36.4666 2.33456 36.4944 2.01452 36.447 1.70124C36.3997 1.38796 36.2786 1.09041 36.0938 0.833093C35.9089 0.575777 35.6656 0.366061 35.3838 0.22122C35.102 0.0763789 34.7898 0.000556916 34.473 0L27.6 0C27.1412 0.00209125 26.6968 0.160127 26.3397 0.448154C25.9827 0.736181 25.7341 1.13708 25.635 1.585L23.043 13.585C22.9812 13.8764 22.9853 14.178 23.0549 14.4676C23.1246 14.7573 23.258 15.0277 23.4456 15.2592C23.6332 15.4906 23.8701 15.6773 24.139 15.8054C24.4079 15.9336 24.7021 16.0001 25 16H30.511L30.229 17.007C30.135 17.007 30.045 17.007 29.951 17.007C23.422 17.007 19.051 18.82 16.966 22.396C14.828 26.058 15.756 30.544 16.517 32.933C15.8857 33.0302 15.3048 33.3349 14.866 33.799C14.019 34.692 13.529 36.431 14.688 38.615C14.876 38.991 15.036 39.321 15.157 39.615C15.4047 40.1792 15.5353 40.7878 15.541 41.404C15.5187 41.8178 15.5799 42.2318 15.721 42.6214C15.862 43.0111 16.08 43.3684 16.362 43.672C16.8273 44.1348 17.4254 44.4407 18.073 44.547C18.1544 46.0314 18.5151 47.4872 19.136 48.838C19.4805 49.4324 19.9254 49.9626 20.451 50.405L20.119 53H13C11.6744 53.0016 10.4036 53.5289 9.46622 54.4662C8.52888 55.4036 8.00159 56.6744 8 58C8 58.5304 8.21071 59.0391 8.58579 59.4142C8.96086 59.7893 9.46957 60 10 60ZM50 58H37.282C38.3496 57.2391 39.1899 56.2021 39.713 55H47C47.7957 55 48.5587 55.3161 49.1213 55.8787C49.6839 56.4413 50 57.2043 50 58ZM41.53 24.029C42.2719 25.8826 42.4595 27.9118 42.07 29.87C41.399 27.74 40.286 25.413 38.47 24.297C38.0445 24.0325 37.5348 23.9386 37.0429 24.0341C36.5511 24.1296 36.1136 24.4075 35.818 24.812C34.9565 25.8688 33.7302 26.5642 32.381 26.761L37.056 20.1C38.0262 20.4231 38.9219 20.9373 39.6903 21.6121C40.4587 22.2868 41.0842 23.1086 41.53 24.029ZM25 14L27.592 2.008L26.614 1.8L27.6 2H34.469L32.334 8.355C32.2324 8.65665 32.2041 8.97816 32.2514 9.29293C32.2987 9.6077 32.4202 9.90668 32.606 10.1652C32.7918 10.4236 33.0364 10.6342 33.3197 10.7793C33.6029 10.9245 33.9167 11.0001 34.235 11L40.993 11.006L29.327 27.636L32.436 16.536C32.5186 16.2391 32.5315 15.9272 32.4736 15.6245C32.4158 15.3219 32.2888 15.0367 32.1025 14.7912C31.9163 14.5457 31.6758 14.3465 31.3999 14.2093C31.124 14.0721 30.8201 14.0004 30.512 14H25ZM18.775 23.257C20.486 20.48 24.157 19.057 29.666 19.007L27.5 26.746C26.1908 26.5288 25.0071 25.838 24.174 24.805C23.8796 24.4036 23.4445 24.1281 22.9556 24.0339C22.4668 23.9397 21.9605 24.0337 21.538 24.297C19.654 25.449 18.525 27.913 17.865 30.08C17.3372 27.7709 17.6604 25.349 18.775 23.259V23.257ZM20.03 43.617C20.03 43.3518 19.9246 43.0974 19.7371 42.9099C19.5496 42.7224 19.2952 42.617 19.03 42.617C18.5893 42.6545 18.1502 42.5289 17.796 42.264C17.6064 42.0294 17.5147 41.7306 17.54 41.43C17.5394 40.5358 17.3564 39.651 17.002 38.83C16.865 38.503 16.686 38.13 16.464 37.689C15.792 36.421 15.947 35.555 16.315 35.166C16.4848 35.0069 16.7016 34.9071 16.9329 34.8815C17.1642 34.8559 17.3975 34.9059 17.598 35.024C17.615 35.032 17.635 35.024 17.653 35.035C17.7654 35.0815 17.8854 35.1066 18.007 35.109H18.017C18.0576 35.1065 18.098 35.1015 18.138 35.094C18.2314 35.0816 18.3225 35.0563 18.409 35.019C18.44 35.005 18.476 35.008 18.509 34.991C18.605 34.9037 18.7003 34.8157 18.795 34.727C18.8476 34.6546 18.8896 34.5752 18.92 34.491C18.9413 34.4456 18.9587 34.3984 18.972 34.35C18.9888 34.3126 19.0032 34.2742 19.015 34.235C19.23 32.421 20.289 27.405 22.566 25.991C23.6603 27.387 25.2235 28.3392 26.966 28.671L26.618 29.913C26.518 30.2534 26.5438 30.6184 26.6907 30.9413C26.8376 31.2643 27.0957 31.5236 27.418 31.672C27.6224 31.7691 27.8457 31.82 28.072 31.821C28.3115 31.8204 28.5472 31.7616 28.7589 31.6496C28.9706 31.5376 29.1518 31.3757 29.287 31.178L30.849 28.951C34.818 28.736 36.684 27.028 37.43 25.999C39.53 27.292 40.645 31.689 40.967 34.037C40.982 34.202 40.999 34.293 40.999 34.293C41.0271 34.4431 41.0889 34.5849 41.1798 34.7076C41.2707 34.8303 41.3884 34.9307 41.5238 35.0012C41.6593 35.0717 41.809 35.1105 41.9617 35.1146C42.1143 35.1188 42.2659 35.0881 42.405 35.025C42.6055 34.9069 42.8388 34.8569 43.0701 34.8825C43.3014 34.9081 43.5182 35.0079 43.688 35.167C44.056 35.556 44.211 36.422 43.529 37.71C43.317 38.133 43.138 38.504 42.999 38.835C42.6434 39.6552 42.4641 40.541 42.473 41.435C42.4925 41.7375 42.3967 42.0362 42.205 42.271C41.8539 42.5325 41.4193 42.6567 40.983 42.62C40.7178 42.62 40.4634 42.7254 40.2759 42.9129C40.0884 43.1004 39.983 43.3548 39.983 43.62C39.9737 45.0909 39.6736 46.5455 39.1 47.9C38.647 48.761 37.042 49.982 34.927 51.08C34.5681 51.2549 34.2509 51.5049 33.997 51.813C33.5186 52.4345 32.9163 52.9499 32.2282 53.3264C31.5402 53.7028 30.7814 53.9322 30 54C29.2225 53.9322 28.4674 53.7039 27.7825 53.3295C27.0977 52.9552 26.4979 52.4429 26.021 51.825C25.768 51.5134 25.4508 51.26 25.091 51.082C22.962 49.977 21.357 48.756 20.906 47.898C20.3381 46.5423 20.0405 45.0888 20.03 43.619V43.617ZM24.183 52.862C24.2957 52.9159 24.3951 52.9941 24.474 53.091C25.138 53.938 25.9736 54.6351 26.9259 55.1364C27.8783 55.6377 28.9259 55.932 30 56C31.0778 55.9313 32.1287 55.6351 33.0838 55.131C34.0388 54.6268 34.8763 53.9261 35.541 53.075C35.6208 52.9823 35.7197 52.9079 35.831 52.857C36.357 52.584 37.031 52.211 37.709 51.774L37.983 53.933C37.753 54.672 36.364 58 30 58C23.619 58 22.239 54.654 22.017 53.935L22.291 51.773C22.978 52.213 23.651 52.588 24.183 52.864V52.862ZM13 55H20.287C20.8101 56.2021 21.6504 57.2391 22.718 58H10C10 57.2043 10.3161 56.4413 10.8787 55.8787C11.4413 55.3161 12.2044 55 13 55Z" fill="black"/>
<path d="M30 45.9999C29.3029 45.9434 28.6019 46.0393 27.9457 46.2811C27.2895 46.5228 26.6938 46.9046 26.2 47.3999C26.0409 47.6121 25.9725 47.8788 26.0101 48.1413C26.0476 48.4039 26.1878 48.6408 26.4 48.7999C26.6122 48.959 26.8789 49.0274 27.1414 48.9898C27.404 48.9523 27.6409 48.8121 27.8 48.5999C28.4348 48.1365 29.2179 47.923 30 47.9999C30.7821 47.923 31.5652 48.1365 32.2 48.5999C32.3591 48.8121 32.596 48.9523 32.8586 48.9898C33.1211 49.0274 33.3878 48.959 33.6 48.7999C33.8122 48.6408 33.9524 48.4039 33.99 48.1413C34.0275 47.8788 33.9591 47.6121 33.8 47.3999C33.3062 46.9046 32.7105 46.5228 32.0543 46.2811C31.3981 46.0393 30.6971 45.9434 30 45.9999Z" fill="black"/>
<path d="M28.5 36C29.638 36.0004 30.748 35.6479 31.6772 34.9909C32.6064 34.334 33.309 33.405 33.688 32.332C33.7351 32.2074 33.7569 32.0746 33.7519 31.9414C33.747 31.8082 33.7155 31.6774 33.6593 31.5566C33.6031 31.4357 33.5233 31.3274 33.4247 31.2378C33.326 31.1483 33.2104 31.0793 33.0847 31.0351C32.959 30.9908 32.8258 30.9722 32.6927 30.9801C32.5597 30.9881 32.4296 31.0226 32.3101 31.0816C32.1906 31.1405 32.0841 31.2228 31.9969 31.3235C31.9096 31.4242 31.8434 31.5413 31.802 31.668C31.5278 32.4481 30.9864 33.1059 30.2735 33.5249C29.5607 33.9439 28.7226 34.097 27.9077 33.957C27.0927 33.8171 26.3537 33.3932 25.8215 32.7604C25.2892 32.1276 24.9982 31.3268 25 30.5C25 30.2348 24.8946 29.9804 24.7071 29.7929C24.5196 29.6054 24.2652 29.5 24 29.5C23.7348 29.5 23.4804 29.6054 23.2929 29.7929C23.1054 29.9804 23 30.2348 23 30.5C23.0019 31.9581 23.5819 33.356 24.613 34.387C25.644 35.4181 27.0419 35.9981 28.5 36Z" fill="black"/>
<path d="M28.5 40C28.9631 39.9962 29.4253 39.9588 29.883 39.888L30.96 41.377C30.9908 41.4511 31.0039 41.5313 30.9984 41.6113C30.9928 41.6913 30.9687 41.7689 30.928 41.838C30.9042 41.8842 30.8688 41.9233 30.8254 41.9517C30.7819 41.9801 30.7318 41.9968 30.68 42H29C28.7348 42 28.4804 42.1054 28.2929 42.2929C28.1053 42.4804 28 42.7348 28 43C28 43.2652 28.1053 43.5196 28.2929 43.7071C28.4804 43.8946 28.7348 44 29 44H30.68C31.0772 43.9983 31.4672 43.893 31.8113 43.6945C32.1554 43.496 32.4417 43.2111 32.642 42.868C32.8637 42.4952 32.9858 42.0716 32.9965 41.638C33.0072 41.2044 32.9061 40.7753 32.703 40.392C32.6815 40.3512 32.6574 40.3118 32.631 40.274L31.955 39.34C33.7339 38.6442 35.262 37.4287 36.3403 35.8519C37.4185 34.2751 37.9968 32.4102 38 30.5C38 30.2348 37.8946 29.9804 37.7071 29.7929C37.5196 29.6054 37.2652 29.5 37 29.5C36.7348 29.5 36.4804 29.6054 36.2929 29.7929C36.1053 29.9804 36 30.2348 36 30.5C35.999 32.0346 35.5272 33.5319 34.6484 34.7899C33.7696 36.048 32.5261 37.0062 31.0856 37.5352C29.6451 38.0643 28.077 38.1387 26.5928 37.7485C25.1087 37.3582 23.78 36.5221 22.786 35.353C22.7029 35.2471 22.5993 35.1591 22.4813 35.0942C22.3634 35.0294 22.2336 34.989 22.0997 34.9754C21.9658 34.9619 21.8305 34.9756 21.702 35.0156C21.5735 35.0556 21.4544 35.1212 21.3518 35.2083C21.2493 35.2955 21.1654 35.4024 21.1051 35.5228C21.0449 35.6431 21.0095 35.7744 21.0012 35.9087C20.9929 36.0431 21.0118 36.1777 21.0568 36.3046C21.1018 36.4314 21.1719 36.5479 21.263 36.647C22.1535 37.6978 23.2621 38.5421 24.5119 39.1212C25.7617 39.7002 27.1226 40.0001 28.5 40Z" fill="black"/>
</g>
<defs>
<clipPath id="clip0_20_272">
<rect width="60" height="60" fill="white"/>
</clipPath>
</defs>
</svg>
