<svg width="60" height="60" viewBox="0 0 60 60" fill="none" xmlns="http://www.w3.org/2000/svg">
<g clip-path="url(#clip0_20_257)">
<path d="M57 2H31V1C31 0.734784 30.8946 0.48043 30.7071 0.292893C30.5196 0.105357 30.2652 0 30 0C29.7348 0 29.4804 0.105357 29.2929 0.292893C29.1054 0.48043 29 0.734784 29 1V2H3C2.20435 2 1.44129 2.31607 0.87868 2.87868C0.31607 3.44129 0 4.20435 0 5L0 7C0 7.79565 0.31607 8.55871 0.87868 9.12132C1.44129 9.68393 2.20435 10 3 10V51C3 51.7957 3.31607 52.5587 3.87868 53.1213C4.44129 53.6839 5.20435 54 6 54H24.382L22.105 58.553C21.9864 58.7904 21.967 59.0651 22.0511 59.3168C22.1351 59.5685 22.3156 59.7764 22.553 59.895C22.7904 60.0136 23.0651 60.033 23.3168 59.9489C23.5685 59.8649 23.7764 59.6844 23.895 59.447L26.618 54H33.382L36.1 59.447C36.2186 59.6844 36.4265 59.8649 36.6782 59.9489C36.9299 60.033 37.2046 60.0136 37.442 59.895C37.6794 59.7764 37.8599 59.5685 37.9439 59.3168C38.028 59.0651 38.0086 58.7904 37.89 58.553L35.618 54H54C54.7957 54 55.5587 53.6839 56.1213 53.1213C56.6839 52.5587 57 51.7957 57 51V10C57.7957 10 58.5587 9.68393 59.1213 9.12132C59.6839 8.55871 60 7.79565 60 7V5C60 4.20435 59.6839 3.44129 59.1213 2.87868C58.5587 2.31607 57.7957 2 57 2ZM55 51C55 51.2652 54.8946 51.5196 54.7071 51.7071C54.5196 51.8946 54.2652 52 54 52H6C5.73478 52 5.48043 51.8946 5.29289 51.7071C5.10536 51.5196 5 51.2652 5 51V10H55V51ZM58 7C58 7.26522 57.8946 7.51957 57.7071 7.70711C57.5196 7.89464 57.2652 8 57 8H3C2.73478 8 2.48043 7.89464 2.29289 7.70711C2.10536 7.51957 2 7.26522 2 7V5C2 4.73478 2.10536 4.48043 2.29289 4.29289C2.48043 4.10536 2.73478 4 3 4H57C57.2652 4 57.5196 4.10536 57.7071 4.29289C57.8946 4.48043 58 4.73478 58 5V7Z" fill="black"/>
<path d="M13.838 38.0799C14.374 39.5448 15.4399 40.7555 16.8252 41.4725C18.2105 42.1896 19.8144 42.361 21.32 41.9529C21.5977 42.5633 22.0452 43.0809 22.6091 43.4438C23.173 43.8068 23.8294 43.9998 24.5 43.9999H24.93C25.094 43.9994 25.2556 44.0397 25.4002 44.1172C25.5447 44.1947 25.6677 44.307 25.758 44.4439L28.588 48.6849C28.9395 49.2122 29.4513 49.6125 30.0477 49.8267C30.6441 50.0409 31.2936 50.0575 31.9003 49.8743C32.5069 49.691 33.0386 49.3175 33.4167 48.8089C33.7948 48.3003 33.9993 47.6836 34 47.0499V43.9709C35.591 43.8751 37.0887 43.1878 38.1989 42.0441C39.309 40.9005 39.9515 39.383 40 37.7899C39.9979 37.5417 39.9802 37.2939 39.947 37.0479C40.6039 36.7584 41.1926 36.3341 41.675 35.8025C42.1574 35.2709 42.5226 34.6438 42.747 33.9619C44.7256 33.8292 46.6315 33.1638 48.2627 32.0362C49.894 30.9086 51.1899 29.3608 52.0131 27.5567C52.8364 25.7526 53.1564 23.7595 52.9392 21.7883C52.722 19.8172 51.9757 17.9416 50.7793 16.36C49.583 14.7785 47.9811 13.55 46.1435 12.8046C44.3059 12.0593 42.3008 11.8249 40.3408 12.1262C38.3808 12.4275 36.5388 13.2534 35.0098 14.5162C33.4809 15.7791 32.3221 17.4321 31.656 19.2999C29.9891 18.5166 28.0906 18.3805 26.329 18.9179C25.3786 18.3221 24.2761 18.014 23.1545 18.0308C22.0328 18.0477 20.9401 18.3888 20.008 19.0129C18.8975 18.5257 17.6497 18.4508 16.4889 18.8017C15.3281 19.1525 14.3307 19.9061 13.676 20.9269C12.4195 20.973 11.2242 21.4817 10.3198 22.3553C9.41544 23.2288 8.86564 24.4057 8.776 25.6599C8.22004 26.1336 7.77336 26.7221 7.46676 27.3851C7.16016 28.048 7.00092 28.7695 7 29.4999C6.99893 30.3235 7.20162 31.1346 7.59 31.8609C7.60264 33.5114 8.26588 35.0903 9.4357 36.2547C10.6055 37.419 12.1875 38.0749 13.838 38.0799ZM31.04 47.9999C30.884 47.9983 30.7308 47.9588 30.5935 47.8848C30.4562 47.8107 30.339 47.7044 30.252 47.5749L27.424 43.3379C27.1518 42.9256 26.7813 42.5875 26.346 42.3539C25.9106 42.1204 25.424 41.9987 24.93 41.9999H24.5C24.2166 42.0006 23.9388 41.9206 23.6992 41.7692C23.4595 41.6178 23.268 41.4012 23.147 41.1449C23.7205 40.7733 24.2298 40.3109 24.655 39.7759C25.5212 40.1264 26.4384 40.3347 27.371 40.3929C27.8077 41.2616 28.4341 42.0211 29.2038 42.6151C29.9736 43.2092 30.867 43.6226 31.818 43.8249C31.883 43.8399 31.937 43.8379 32 43.8509V47.0509C31.9995 47.1763 31.9742 47.3004 31.9256 47.416C31.8771 47.5316 31.8062 47.6365 31.717 47.7247C31.6278 47.8128 31.5221 47.8825 31.4059 47.9298C31.2898 47.977 31.1654 48.0008 31.04 47.9999ZM38 37.7899C37.9419 38.9595 37.4235 40.0586 36.558 40.8474C35.6924 41.6361 34.55 42.0505 33.38 41.9999C33.3066 42.0037 33.233 42.0013 33.16 41.9929C33.1177 41.9859 33.0749 41.9819 33.032 41.9809C32.7725 41.9703 32.5146 41.9344 32.262 41.8739C31.2233 41.6421 30.2946 41.0633 29.629 40.2329C31.8399 39.7868 33.7893 38.495 35.062 36.6329C35.9016 37.1959 36.8891 37.4976 37.9 37.4999C37.927 37.4999 37.952 37.4929 37.979 37.4929C37.986 37.5919 38 37.6899 38 37.7899ZM42 13.9999C43.78 13.9999 45.5201 14.5277 47.0001 15.5167C48.4802 16.5056 49.6337 17.9112 50.3149 19.5557C50.9961 21.2003 51.1743 23.0099 50.8271 24.7557C50.4798 26.5015 49.6226 28.1052 48.364 29.3639C47.1053 30.6225 45.5016 31.4797 43.7558 31.827C42.01 32.1742 40.2004 31.996 38.5559 31.3148C36.9113 30.6336 35.5057 29.4801 34.5168 28C33.5278 26.52 33 24.7799 33 22.9999C33.0027 20.6138 33.9517 18.3261 35.639 16.6389C37.3262 14.9516 39.6139 14.0025 42 13.9999ZM10.333 26.9769C10.4939 26.8756 10.6205 26.7282 10.6967 26.554C10.7728 26.3798 10.7949 26.1868 10.76 25.9999C10.7634 25.1806 11.0918 24.3962 11.673 23.8187C12.2542 23.2413 13.0407 22.918 13.86 22.9199C13.9381 22.9166 14.0163 22.9192 14.094 22.9279C14.3074 22.9638 14.5267 22.9286 14.7181 22.8276C14.9095 22.7266 15.0623 22.5654 15.153 22.3689C15.339 21.9718 15.607 21.6186 15.9394 21.3325C16.2717 21.0463 16.6608 20.8338 17.0811 20.7088C17.5015 20.5839 17.9435 20.5493 18.3781 20.6074C18.8128 20.6655 19.2302 20.8149 19.603 21.0459C19.7859 21.1566 19.9995 21.2057 20.2124 21.1861C20.4254 21.1665 20.6264 21.0791 20.786 20.9369C21.4446 20.3735 22.2768 20.0535 23.1432 20.0306C24.0096 20.0076 24.8575 20.2831 25.545 20.8109C25.6832 20.9204 25.8477 20.9918 26.0221 21.018C26.1965 21.0441 26.3747 21.0241 26.539 20.9599C27.2831 20.6691 28.0822 20.5462 28.8793 20.5999C29.6763 20.6537 30.4517 20.8828 31.15 21.2709C30.9056 22.7261 30.9593 24.2158 31.3077 25.6497C31.6561 27.0835 32.292 28.4317 33.1769 29.6125C34.0618 30.7934 35.1773 31.7822 36.4556 32.5192C37.734 33.2561 39.1487 33.7259 40.614 33.8999C40.3711 34.3364 40.0266 34.708 39.6096 34.983C39.1926 35.2581 38.7155 35.4286 38.2186 35.4802C37.7217 35.5317 37.2198 35.4627 36.7552 35.279C36.2907 35.0953 35.8773 34.8023 35.55 34.4249C35.4406 34.3008 35.3021 34.2059 35.147 34.1485C34.9918 34.0911 34.8249 34.0731 34.6611 34.0961C34.4973 34.1191 34.3417 34.1824 34.2084 34.2802C34.075 34.3781 33.968 34.5075 33.897 34.6569C33.5095 35.4648 32.9621 36.1856 32.288 36.7759C31.6139 37.3662 30.8271 37.8137 29.9752 38.0912C29.1232 38.3687 28.2238 38.4706 27.3314 38.3906C26.439 38.3106 25.572 38.0505 24.783 37.6259C24.5537 37.5024 24.2854 37.4733 24.0349 37.5446C23.7845 37.616 23.5718 37.7822 23.442 38.0079C23.0142 38.7577 22.3696 39.3605 21.5929 39.7372C20.8162 40.114 19.9437 40.247 19.0901 40.1188C18.2364 39.9906 17.4415 39.6073 16.8097 39.019C16.1779 38.4308 15.7388 37.6652 15.55 36.8229C15.4676 36.4262 15.437 36.0205 15.459 35.6159C15.553 33.6549 17.632 31.9999 20 31.9999H24C24.2667 32.0153 24.5336 31.9741 24.7832 31.879C25.0328 31.784 25.2595 31.6372 25.4484 31.4483C25.6373 31.2594 25.7841 31.0327 25.8791 30.7831C25.9742 30.5335 26.0154 30.2666 26 29.9999L26.009 28.9999H28C28.2652 28.9999 28.5196 28.8945 28.7071 28.707C28.8946 28.5195 29 28.2651 29 27.9999C29 27.7347 28.8946 27.4803 28.7071 27.2928C28.5196 27.1053 28.2652 26.9999 28 26.9999H26C25.7333 26.9845 25.4664 27.0257 25.2168 27.1208C24.9672 27.2158 24.7405 27.3626 24.5516 27.5515C24.3627 27.7404 24.2159 27.9671 24.1209 28.2167C24.0258 28.4663 23.9846 28.7332 24 28.9999L23.991 29.9999H20C16.54 29.9999 13.606 32.4769 13.461 35.5199C13.453 35.6949 13.461 35.8669 13.468 36.0409C12.3986 35.941 11.4059 35.442 10.6877 34.6434C9.96949 33.8447 9.5783 32.8049 9.592 31.7309C9.61991 31.5044 9.56907 31.2753 9.448 31.0819C9.15426 30.6066 8.9991 30.0587 9 29.4999C8.99964 29.0025 9.12092 28.5126 9.35326 28.0729C9.58559 27.6331 9.92195 27.2569 10.333 26.9769Z" fill="black"/>
<path d="M40.293 26.707C40.4805 26.8946 40.7348 27 41 27C41.032 27 41.065 27 41.1 27C41.2471 26.9854 41.3892 26.9384 41.5159 26.8623C41.6427 26.7862 41.751 26.683 41.833 26.56L45.833 20.56C45.9059 20.4507 45.9566 20.3282 45.9821 20.1994C46.0076 20.0705 46.0075 19.9379 45.9818 19.8091C45.9561 19.6803 45.9052 19.5579 45.8322 19.4487C45.7591 19.3396 45.6653 19.2459 45.556 19.173C45.4468 19.1001 45.3242 19.0495 45.1954 19.024C45.0665 18.9984 44.9339 18.9985 44.8051 19.0242C44.6764 19.05 44.5539 19.1008 44.4447 19.1739C44.3356 19.2469 44.2419 19.3407 44.169 19.45L40.846 24.436L39.708 23.298C39.5194 23.1158 39.2668 23.0151 39.0046 23.0173C38.7424 23.0196 38.4916 23.1248 38.3062 23.3102C38.1208 23.4956 38.0156 23.7464 38.0133 24.0086C38.0111 24.2708 38.1119 24.5234 38.294 24.712L40.293 26.707Z" fill="black"/>
</g>
<defs>
<clipPath id="clip0_20_257">
<rect width="60" height="60" fill="white"/>
</clipPath>
</defs>
</svg>
