<svg width="56" height="56" viewBox="0 0 56 56" fill="none" xmlns="http://www.w3.org/2000/svg">
<g clip-path="url(#clip0_729_12837)">
<path d="M39.2 1.86664C35.0654 1.85543 31.0741 3.38013 28 6.14504C25.5828 3.98298 22.5914 2.56679 19.387 2.0674C16.1826 1.568 12.9021 2.00676 9.9416 3.33071C6.98107 4.65466 4.46702 6.8072 2.70292 9.52851C0.938819 12.2498 7.34848e-05 15.4236 0 18.6666C0 18.9466 0.00933333 19.2378 0.0196 19.5234C0.164733 23.7298 1.83849 27.739 4.72733 30.8L26.1175 53.3166C26.3585 53.5742 26.6499 53.7796 26.9736 53.92C27.2972 54.0604 27.6463 54.1328 27.9991 54.1328C28.3519 54.1328 28.7009 54.0604 29.0246 53.92C29.3482 53.7796 29.6396 53.5742 29.8807 53.3166L51.2727 30.8C54.162 27.7382 55.8358 23.728 55.9804 19.5206C55.9907 19.2406 56 18.9494 56 18.6685C55.9956 14.2141 54.2242 9.94331 51.0746 6.79336C47.925 3.64342 43.6544 1.87158 39.2 1.86664ZM54.1156 19.4516C53.9855 23.2042 52.4924 26.7808 49.9156 29.512L28.5255 52.0333C28.4576 52.1047 28.376 52.1615 28.2855 52.2004C28.195 52.2392 28.0975 52.2593 27.9991 52.2593C27.9006 52.2593 27.8031 52.2392 27.7126 52.2004C27.6221 52.1615 27.5405 52.1047 27.4727 52.0333L6.08067 29.512C3.50478 26.7821 2.01168 23.2073 1.88067 19.4562C1.876 19.1949 1.86667 18.9261 1.86667 18.6666C1.86692 15.7154 2.74162 12.8305 4.38032 10.376C6.01901 7.92156 8.34822 6.00769 11.0739 4.87606C13.7995 3.74442 16.7993 3.44577 19.6945 4.01781C22.5898 4.58984 25.2506 6.00692 27.3411 8.09011C28.7373 9.47421 29.8445 11.1219 30.5986 12.9376C31.3526 14.7533 31.7383 16.7006 31.7333 18.6666C31.7333 18.9142 31.8317 19.1516 32.0067 19.3266C32.1817 19.5016 32.4191 19.6 32.6667 19.6C32.9142 19.6 33.1516 19.5016 33.3266 19.3266C33.5017 19.1516 33.6 18.9142 33.6 18.6666C33.6058 14.5406 32.0807 10.559 29.3197 7.49277C31.4706 5.58378 34.1275 4.33735 36.9704 3.90363C39.8133 3.46991 42.721 3.8674 45.3432 5.04821C47.9654 6.22903 50.1903 8.1428 51.7499 10.559C53.3094 12.9752 54.1372 15.7908 54.1333 18.6666C54.1333 18.9261 54.124 19.1949 54.1156 19.4516Z" fill="#0A6D77"/>
<path d="M16.1648 6.76848C14.4633 6.33005 12.6583 6.56404 11.1248 7.42182C8.1876 8.94128 6.73813 11.7917 7.82547 13.9131C8.04783 14.3287 8.35158 14.6953 8.71862 14.991C9.08566 15.2867 9.50848 15.5054 9.96187 15.6342C10.4791 15.7932 11.0177 15.8716 11.5588 15.8666C12.7638 15.849 13.9474 15.5454 15.0121 14.9809C17.9484 13.4614 19.3988 10.611 18.3087 8.48862C18.0848 8.0729 17.7796 7.70642 17.4113 7.41093C17.0431 7.11544 16.6192 6.89697 16.1648 6.76848ZM14.1516 13.3195C13.053 13.9462 11.7585 14.1355 10.5265 13.8497C10.0878 13.7323 9.71321 13.4465 9.484 13.0545C8.8932 11.9028 10.0375 10.0809 11.9825 9.07475C12.7791 8.65002 13.6644 8.41884 14.5669 8.39995C14.9174 8.39617 15.2665 8.4459 15.602 8.54742C16.041 8.66455 16.4166 8.94901 16.6483 9.33982C17.2391 10.4925 16.0948 12.3143 14.1516 13.3195Z" fill="#0A6D77"/>
<path d="M7.28086 15.9311C6.95335 15.8562 6.61418 15.8474 6.28323 15.9053C5.95228 15.9631 5.63621 16.0865 5.35353 16.268C4.5676 16.7804 4.01581 17.5825 3.8182 18.4996C3.57161 19.2672 3.63862 20.1011 4.00459 20.8194C4.37057 21.5377 5.0058 22.0821 5.77166 22.3338C5.95325 22.3773 6.13934 22.3992 6.32606 22.3991C6.81198 22.3957 7.28724 22.2564 7.69806 21.9968C8.4818 21.4853 9.03241 20.6855 9.2306 19.7708C9.47173 19.003 9.40271 18.1712 9.03831 17.4536C8.67392 16.736 8.0431 16.1895 7.28086 15.9311ZM7.41526 19.3434C7.32927 19.7744 7.08017 20.1556 6.71993 20.4074C6.57026 20.51 6.38605 20.5493 6.20753 20.5166C5.78846 20.4167 5.4534 19.7354 5.63913 18.9196C5.72549 18.4888 5.9745 18.1077 6.33446 17.8556C6.44977 17.7806 6.58335 17.7383 6.72086 17.7334C6.76238 17.7333 6.80375 17.7383 6.84406 17.7483C7.2678 17.8482 7.60473 18.5286 7.41246 19.3434H7.41526Z" fill="#0A6D77"/>
</g>
<defs>
<clipPath id="clip0_729_12837">
<rect width="56" height="56" fill="white"/>
</clipPath>
</defs>
</svg>
