<svg width="12" height="11" viewBox="0 0 12 11" fill="none" xmlns="http://www.w3.org/2000/svg">
<path d="M4.89233 0.927049C5.19168 0.00573826 6.49509 0.00573993 6.79444 0.927051L7.41498 2.83688C7.54886 3.2489 7.93281 3.52786 8.36604 3.52786H10.3742C11.3429 3.52786 11.7457 4.76748 10.9619 5.33688L9.33734 6.51722C8.98685 6.77187 8.84019 7.22323 8.97407 7.63525L9.59461 9.54508C9.89396 10.4664 8.83948 11.2325 8.05577 10.6631L6.43117 9.48278C6.08068 9.22813 5.60609 9.22814 5.2556 9.48278L3.631 10.6631C2.84728 11.2325 1.79281 10.4664 2.09216 9.54508L2.7127 7.63526C2.84657 7.22323 2.69992 6.77186 2.34943 6.51722L0.724828 5.33688C-0.0588851 4.76748 0.343892 3.52786 1.31262 3.52786H3.32073C3.75396 3.52786 4.13791 3.2489 4.27179 2.83688L4.89233 0.927049Z" fill="#FBB837"/>
</svg>
