<svg width="28" height="20" viewBox="0 0 28 20" fill="none" xmlns="http://www.w3.org/2000/svg">
<g clip-path="url(#clip0_142_209)">
<path d="M0.666626 0H27.3333V20H0.666626V0Z" fill="#012169"/>
<path d="M3.79163 0L13.9583 7.54167L24.0833 0H27.3333V2.58333L17.3333 10.0417L27.3333 17.4583V20H24L14 12.5417L4.04163 20H0.666626V17.5L10.625 10.0833L0.666626 2.66667V0H3.79163Z" fill="white"/>
<path d="M18.3333 11.7083L27.3333 18.3333V20L16.0416 11.7083H18.3333ZM10.6666 12.5417L10.9166 14L2.91663 20H0.666626L10.6666 12.5417ZM27.3333 0V0.125L16.9583 7.95833L17.0416 6.125L25.25 0H27.3333ZM0.666626 0L10.625 7.33333H8.12496L0.666626 1.75V0Z" fill="#C8102E"/>
<path d="M10.7083 0V20H17.375V0H10.7083ZM0.666626 6.66667V13.3333H27.3333V6.66667H0.666626Z" fill="white"/>
<path d="M0.666626 8.04167V12.0417H27.3333V8.04167H0.666626ZM12.0416 0V20H16.0416V0H12.0416Z" fill="#C8102E"/>
</g>
<defs>
<clipPath id="clip0_142_209">
<rect x="0.666626" width="26.6667" height="20" rx="4" fill="white"/>
</clipPath>
</defs>
</svg>
