<svg width="24" height="24" viewBox="0 0 24 24" fill="none" xmlns="http://www.w3.org/2000/svg">
<path d="M12 22.001C17.5228 22.001 22 17.5238 22 12.001C22 6.47813 17.5228 2.00098 12 2.00098C6.47715 2.00098 2 6.47813 2 12.001C2 17.5238 6.47715 22.001 12 22.001Z" stroke="#676F6F" stroke-width="2" stroke-linecap="round" stroke-linejoin="round"/>
<path d="M9.09003 9.00106C9.32513 8.33273 9.78918 7.76916 10.4 7.41019C11.0108 7.05122 11.7289 6.92 12.4272 7.03977C13.1255 7.15954 13.7588 7.52258 14.2151 8.06459C14.6714 8.60659 14.9211 9.29258 14.92 10.0011C14.92 12.0011 11.92 13.0011 11.92 13.0011" stroke="#676F6F" stroke-width="2" stroke-linecap="round" stroke-linejoin="round"/>
<path d="M12 17.001H12.01" stroke="#676F6F" stroke-width="2" stroke-linecap="round" stroke-linejoin="round"/>
</svg>
