<svg width="522" height="124" viewBox="0 0 522 124" fill="none" xmlns="http://www.w3.org/2000/svg">
<path fill-rule="evenodd" clip-rule="evenodd" d="M148.438 24.0828C148.203 11.0113 136.817 0.449798 122.855 0.4498C119.028 0.385517 115.232 1.20473 111.724 2.85217C108.216 4.49961 105.078 6.93696 102.521 9.99974L84.8667 28.0975C82.2884 30.7406 81.7055 34.7435 83.4231 38.0121L84.1956 39.4823C95.521 61.0352 96.6422 86.5166 87.2537 108.981C87.2538 109.762 87.5158 110.516 87.9916 111.105C90.1399 113.678 99.2737 117.788 104.22 120.013L104.22 120.013C105.162 120.436 105.951 120.792 106.512 121.055C110.02 122.703 113.816 123.522 117.643 123.458C131.753 123.458 148.443 112.672 148.443 99.4105C148.44 98.1916 148.325 96.9761 148.1 95.7815C152.104 94.0762 155.553 91.1451 158.022 87.3516C160.491 83.558 161.87 79.0688 161.989 74.4403C161.963 69.0589 160.1 63.8753 156.754 59.8736C160.099 55.8716 161.962 50.6882 161.989 45.3069C161.865 40.7433 160.521 36.3147 158.118 32.5507C155.715 28.7868 152.354 25.847 148.438 24.0828ZM150.52 62.314C152.189 63.792 153.54 65.6413 154.481 67.7346C155.421 69.828 155.929 72.1158 155.969 74.4403C155.776 78.2222 154.47 81.8401 152.238 84.7703C150.006 87.7006 146.965 89.7911 143.555 90.7394C143.529 90.7487 143.508 90.7649 143.486 90.7811C143.466 90.7957 143.447 90.8103 143.424 90.82C141.404 90.7121 139.493 89.799 138.065 88.2587C137.283 87.4152 136.677 86.4167 136.273 85.3292C135.706 83.8044 134.418 82.4887 132.791 82.4887C131.085 82.4887 129.685 83.9065 130.05 85.5732C130.6 88.086 131.742 90.424 133.388 92.3511C135.691 95.0491 138.824 96.7592 142.209 97.1655C142.345 97.905 142.417 98.6566 142.422 99.4105C142.422 107.037 133.754 113.545 124.802 115.97C121.4 114.522 117.976 110.11 116.495 106.599C116.044 105.528 114.799 105.055 113.784 105.568L111.566 106.691C110.51 107.225 110.055 108.505 110.525 109.619C111.555 112.06 113.151 114.622 115.076 116.862C113.171 116.645 111.299 116.147 109.512 115.38C109.051 115.182 108.3 114.877 107.366 114.498L107.365 114.498C103.069 112.754 94.9038 109.441 93.2744 107.717C102.648 86.0883 101.722 61.3788 90.7575 40.5122L89.5711 38.2544C87.8015 34.8869 88.5408 30.7481 91.3667 28.2014L94.2484 25.6043C97.9077 26.2657 102.241 29.9757 104.424 33.1726C105.079 34.132 106.393 34.3486 107.285 33.6442L109.236 32.1036C110.166 31.37 110.357 30.0257 109.675 29.0265C107.415 25.7161 103.828 22.3934 100.029 20.3946L107.803 13.3885C109.787 11.2898 112.14 9.63719 114.724 8.52723C117.309 7.41727 120.073 6.8722 122.855 6.92389C133.095 6.92389 141.509 14.03 142.34 23.037C139.223 23.7187 136.414 25.5195 134.374 28.1439C132.955 29.969 131.967 32.1172 131.473 34.4066C131.114 36.0692 132.511 37.4798 134.212 37.4798C135.843 37.4798 137.133 36.1555 137.699 34.6255C138.062 33.6423 138.593 32.7311 139.271 31.9418C140.572 30.4272 142.332 29.46 144.236 29.2132C147.494 30.2724 150.368 32.3861 152.468 35.2661C154.567 38.1462 155.79 41.6525 155.969 45.3069C155.928 47.632 155.421 49.9201 154.48 52.014C153.539 54.1078 152.187 55.9577 150.518 57.4363C150.195 57.7403 149.935 58.1152 149.757 58.5359C149.58 58.9567 149.488 59.4134 149.488 59.8756C149.488 60.3377 149.58 60.7944 149.758 61.215C149.936 61.6356 150.196 62.0104 150.52 62.314Z" fill="#7D4DE2"/>
<path d="M25.9383 3.70176C17.2881 0.348459 -1.85709 -5.79933 1.56569 14.0425C2.73652 20.8352 6.29226 26.7955 10.3791 31.8025C8.20174 38.16 8.53293 45.7977 10.4842 52.0993C12.707 59.2673 16.6674 64.9888 21.5175 69.6327C21.4556 69.99 21.4278 70.3706 21.4686 70.7814C23.9362 95.7325 41.5607 110.474 60.7623 109.628C59.8586 112.578 58.9522 115.53 58.0458 118.482C57.509 120.233 58.8723 122.74 60.4546 122.497C93.2909 117.425 92.8421 63.3499 76.0739 37.1642C64.3318 18.8321 43.3731 10.459 25.9383 3.70176ZM64.4622 115.216C65.3029 112.473 66.1436 109.733 66.9844 106.99C67.7566 104.477 65.612 102.799 63.8996 103.081C64.8857 102.917 63.1024 103.154 62.7766 103.181C61.6697 103.258 60.5605 103.299 59.4519 103.287C55.5412 103.244 50.3033 102.605 46.5546 101.233C35.6723 97.2493 29.4411 87.2029 27.1032 74.2776C34.5021 79.6406 43.0124 83.2158 50.4571 85.9393C53.5942 87.0881 55.0039 81.0216 51.872 79.876C38.7278 75.0676 20.4325 67.3295 15.1253 49.573C14.0766 46.0651 13.6774 42.1897 14.1155 38.4674C14.1762 37.9656 14.3352 37.1825 14.5072 36.4159C15.002 36.9234 15.4943 37.4243 15.9816 37.9055C25.0399 46.8254 35.6503 53.0491 46.8027 56.7632C49.9594 57.8137 51.3743 51.7505 48.2176 50.6999C37.3685 47.0842 26.939 41.0232 18.2511 32.1105C13.7657 27.5098 4.90278 17.8597 6.3213 9.39949C7.61284 1.70304 20.6437 8.2637 24.5234 9.76828C34.2884 13.5567 43.8223 18.4493 53.1414 23.6483C70.2484 33.1899 82.1163 52.6758 81.9856 76.5755C81.8928 93.4849 78.1123 110.514 64.4622 115.216Z" fill="#1B0056"/>
<path fill-rule="evenodd" clip-rule="evenodd" d="M234.996 121.549C230.178 121.549 225.949 120.622 222.308 118.766C218.723 116.853 215.922 114.244 213.905 110.939C211.889 107.576 210.88 103.721 210.88 99.3722C210.88 94.7918 211.777 90.7622 213.569 87.2834C215.362 83.8047 217.827 81.0796 220.964 79.1083C224.1 77.137 227.714 76.1514 231.803 76.1514C236.396 76.1514 240.177 77.166 243.146 79.1953C246.115 81.2246 248.3 83.9496 249.7 87.3704C251.157 90.7912 251.885 94.6179 251.885 98.8504C251.885 99.4302 251.857 100.097 251.801 100.851C251.745 101.604 251.661 102.184 251.549 102.59H221.132C221.468 104.909 222.28 106.852 223.568 108.417C224.857 109.924 226.481 111.084 228.442 111.896C230.402 112.649 232.587 113.026 234.996 113.026H246.507V121.549H234.996ZM221.048 95.8064H242.222C242.166 94.7048 241.998 93.6032 241.718 92.5016C241.494 91.4 241.102 90.3564 240.542 89.3707C240.037 88.385 239.365 87.5443 238.525 86.8486C237.741 86.0949 236.788 85.5151 235.668 85.1092C234.548 84.6454 233.259 84.4134 231.803 84.4134C230.122 84.4134 228.638 84.7613 227.349 85.4571C226.061 86.0949 224.969 86.9645 224.072 88.0662C223.176 89.1098 222.476 90.3274 221.972 91.7189C221.524 93.0524 221.216 94.4149 221.048 95.8064ZM321.413 123.014C316.868 123.014 312.84 121.99 309.331 119.942C305.821 117.836 303.031 115.028 300.959 111.518C298.946 107.949 297.939 103.97 297.939 99.5826C297.939 95.1947 298.946 91.2456 300.959 87.7353C303.031 84.1665 305.821 81.3583 309.331 79.3106C312.84 77.2045 316.868 76.1514 321.413 76.1514C325.901 76.1514 329.9 77.2045 333.409 79.3106C336.919 81.3583 339.681 84.1373 341.694 87.6476C343.766 91.1579 344.801 95.1362 344.801 99.5826C344.801 103.97 343.766 107.949 341.694 111.518C339.681 115.028 336.919 117.836 333.409 119.942C329.9 121.99 325.901 123.014 321.413 123.014ZM321.413 114.414C324.117 114.414 326.476 113.77 328.49 112.483C330.504 111.137 332.057 109.353 333.15 107.13C334.244 104.907 334.79 102.391 334.79 99.5826C334.79 96.8329 334.244 94.3464 333.15 92.1232C332.057 89.8415 330.504 88.0571 328.49 86.77C326.476 85.4244 324.117 84.7516 321.413 84.7516C318.652 84.7516 316.264 85.4244 314.25 86.77C312.294 88.0571 310.74 89.8123 309.59 92.0354C308.497 94.2586 307.95 96.7744 307.95 99.5826C307.95 102.332 308.497 104.848 309.59 107.13C310.74 109.353 312.294 111.137 314.25 112.483C316.264 113.77 318.652 114.414 321.413 114.414ZM423.963 121.549C418.973 121.549 414.593 120.622 410.822 118.766C407.109 116.853 404.208 114.244 402.119 110.939C400.03 107.576 398.986 103.721 398.986 99.3722C398.986 94.7918 399.914 90.7622 401.771 87.2834C403.628 83.8047 406.18 81.0796 409.429 79.1083C412.678 77.137 416.42 76.1514 420.656 76.1514C425.413 76.1514 429.329 77.166 432.404 79.1953C435.479 81.2246 437.742 83.9496 439.192 87.3704C440.701 90.7912 441.455 94.6179 441.455 98.8504C441.455 99.4302 441.426 100.097 441.368 100.851C441.31 101.604 441.223 102.184 441.107 102.59H409.603C409.951 104.909 410.793 106.852 412.127 108.417C413.462 109.924 415.144 111.084 417.175 111.896C419.205 112.649 421.468 113.026 423.963 113.026H435.885V121.549H423.963ZM409.516 95.8064H431.447C431.389 94.7048 431.215 93.6032 430.925 92.5016C430.693 91.4 430.287 90.3564 429.707 89.3707C429.184 88.385 428.488 87.5443 427.618 86.8486C426.806 86.0949 425.819 85.5151 424.659 85.1092C423.499 84.6454 422.164 84.4134 420.656 84.4134C418.915 84.4134 417.378 84.7613 416.043 85.4571C414.709 86.0949 413.578 86.9645 412.649 88.0662C411.721 89.1098 410.996 90.3274 410.474 91.7189C410.009 93.0524 409.69 94.4149 409.516 95.8064ZM450.243 90.1061V121.549H459.669V90.5368C459.669 89.1585 460.024 88.0673 460.734 87.2633C461.499 86.4593 462.537 86.0573 463.849 86.0573H472.209V77.6152H462.128C458.412 77.6152 455.488 78.7351 453.357 80.9748C451.281 83.1571 450.243 86.2009 450.243 90.1061ZM496.792 108.113V121.549H506.371V108.026C509.564 107.446 512.309 106.256 514.606 104.457C516.959 102.6 518.779 100.336 520.068 97.6667C521.356 94.9971 522 92.0082 522 88.7001V77.6152H512.337V88.6131C512.337 90.8765 511.833 92.8787 510.825 94.6198C509.873 96.3029 508.556 97.6377 506.876 98.6243C505.251 99.5529 503.459 100.017 501.498 100.017C499.537 100.017 497.717 99.5529 496.036 98.6243C494.412 97.6377 493.095 96.3029 492.087 94.6198C491.135 92.8787 490.659 90.8765 490.659 88.6131V77.6152H480.996V88.7001C480.996 92.0082 481.64 95.0261 482.928 97.7538C484.217 100.482 486.037 102.745 488.39 104.544C490.743 106.285 493.543 107.475 496.792 108.113ZM364.562 121.1C366.504 122.375 368.689 123.013 371.116 123.013C373.543 123.013 375.728 122.375 377.67 121.1C379.612 119.824 380.977 118.114 381.766 115.969L396.057 77.6152H384.861L372.663 112.055C372.542 112.461 372.33 112.751 372.026 112.925C371.784 113.099 371.51 113.186 371.207 113.186C370.904 113.186 370.631 113.099 370.388 112.925C370.145 112.751 369.933 112.461 369.751 112.055L357.644 77.6152H346.266L360.466 115.969C361.316 118.114 362.681 119.824 364.562 121.1ZM270.927 118.62C274.34 120.572 278.221 121.549 282.569 121.549H290.617V113.107H282.404C279.872 113.107 277.615 112.532 275.634 111.384C273.707 110.178 272.193 108.541 271.092 106.473C269.992 104.406 269.441 102.109 269.441 99.582C269.441 97.0551 269.992 94.7579 271.092 92.6904C272.193 90.623 273.707 89.0149 275.634 87.8663C277.615 86.6603 279.872 86.0573 282.404 86.0573H290.617V77.6152H282.569C278.221 77.6152 274.34 78.5915 270.927 80.5441C267.515 82.4967 264.817 85.1384 262.836 88.4694C260.854 91.7428 259.864 95.447 259.864 99.582C259.864 103.717 260.854 107.45 262.836 110.781C264.817 114.054 267.515 116.667 270.927 118.62ZM183.712 90.1061V121.549H193.138V90.5368C193.138 89.1585 193.493 88.0673 194.204 87.2633C194.969 86.4593 196.007 86.0573 197.318 86.0573H205.679V77.6152H195.597C191.881 77.6152 188.958 78.7351 186.827 80.9748C184.75 83.1571 183.712 86.2009 183.712 90.1061Z" fill="#1B0056"/>
<path fill-rule="evenodd" clip-rule="evenodd" d="M460.494 0V57.1136H469.28V0H460.494ZM411.587 55.4191C414.694 57.5253 418.386 58.5783 422.665 58.5783C425.42 58.5783 427.823 58.1396 429.875 57.262C431.926 56.3844 433.655 55.2436 435.062 53.8394C436.469 52.3768 437.612 50.8264 438.491 49.1883H438.667V57.5253H448.778V35.0594C448.778 30.73 447.84 26.8102 445.964 23.2999C444.147 19.7311 441.51 16.9228 438.051 14.8752C434.652 12.769 430.519 11.7159 425.654 11.7159C420.731 11.7159 416.481 12.769 412.906 14.8752C409.389 16.9228 406.663 19.7311 404.729 23.2999C402.853 26.8102 401.916 30.7885 401.916 35.2349C401.916 39.5057 402.736 43.4256 404.377 46.9944C406.077 50.5047 408.48 53.3129 411.587 55.4191ZM432.249 48.0475C430.314 49.3346 428.028 49.9781 425.391 49.9781C422.577 49.9781 420.174 49.3346 418.181 48.0475C416.247 46.7018 414.752 44.9174 413.697 42.6943C412.642 40.4126 412.114 37.8969 412.114 35.1471C412.114 32.3389 412.642 29.8232 413.697 27.6C414.752 25.3768 416.276 23.6217 418.269 22.3345C420.262 20.9889 422.665 20.3161 425.479 20.3161C428.175 20.3161 430.49 20.9889 432.424 22.3345C434.359 23.6217 435.853 25.3768 436.908 27.6C437.964 29.7647 438.491 32.2511 438.491 35.0594C438.55 37.8676 438.022 40.4126 436.908 42.6943C435.795 44.9174 434.241 46.7018 432.249 48.0475ZM386.098 57.113C382.053 57.113 378.869 55.979 376.549 53.7112C374.288 51.4434 373.158 48.3614 373.158 44.4654V21.1765H365.304V12.6285H373.158V1.46381H383.332V12.6285H397.522V21.1765H383.332V44.0293C383.332 45.3667 383.748 46.4716 384.581 47.3438C385.414 48.1579 386.515 48.565 387.883 48.565H397.433V57.113H386.098ZM315.513 31.5449V57.1139H325.541V31.6319C325.541 29.3707 326.036 27.3994 327.024 25.718C328.07 23.9786 329.437 22.6451 331.123 21.7174C332.867 20.7317 334.727 20.2389 336.704 20.2389C338.738 20.2389 340.599 20.7317 342.285 21.7174C344.029 22.6451 345.424 23.9786 346.471 25.718C347.517 27.3994 348.04 29.3707 348.04 31.6319V57.1139H357.982V31.5449C357.982 27.7183 357.11 24.3265 355.366 21.3695C353.622 18.3546 351.151 16.0064 347.953 14.325C344.814 12.5856 341.093 11.7159 336.791 11.7159C332.489 11.7159 328.739 12.5856 325.541 14.325C322.344 16.0064 319.873 18.3546 318.129 21.3695C316.385 24.3265 315.513 27.7183 315.513 31.5449ZM289.836 57.1139C285.019 57.1139 280.79 56.1862 277.149 54.3309C273.563 52.4176 270.763 49.8085 268.746 46.5036C266.729 43.1408 265.721 39.2852 265.721 34.9367C265.721 30.3563 266.617 26.3267 268.41 22.848C270.202 19.3692 272.667 16.6442 275.804 14.6729C278.941 12.7016 282.554 11.7159 286.643 11.7159C291.237 11.7159 295.018 12.7305 297.987 14.7598C300.956 16.7891 303.141 19.5142 304.541 22.935C305.997 26.3557 306.726 30.1824 306.726 34.4149C306.726 34.9947 306.698 35.6615 306.642 36.4152C306.586 37.1689 306.502 37.7487 306.39 38.1546H275.972C276.308 40.4738 277.121 42.4161 278.409 43.9815C279.697 45.489 281.322 46.6486 283.282 47.4603C285.243 48.214 287.428 48.5909 289.836 48.5909H301.348V57.1139H289.836ZM275.888 31.371H297.063C297.007 30.2694 296.839 29.1677 296.559 28.0661C296.334 26.9645 295.942 25.9209 295.382 24.9352C294.878 23.9496 294.206 23.1089 293.366 22.4131C292.581 21.6594 291.629 21.0796 290.509 20.6737C289.388 20.2099 288.1 19.978 286.643 19.978C284.963 19.978 283.478 20.3259 282.19 21.0216C280.902 21.6594 279.809 22.5291 278.913 23.6307C278.017 24.6743 277.317 25.8919 276.812 27.2834C276.364 28.6169 276.056 29.9795 275.888 31.371ZM183.712 30.5883V57.1139H193.544V30.5883C193.544 28.6749 194.004 26.9355 194.924 25.3701C195.902 23.8046 197.167 22.5581 198.719 21.6304C200.329 20.7027 202.111 20.2389 204.066 20.2389C206.021 20.2389 207.775 20.7027 209.327 21.6304C210.937 22.5581 212.231 23.8046 213.209 25.3701C214.186 26.9355 214.675 28.6749 214.675 30.5883V57.1139H224.507V30.5883C224.507 28.6749 224.967 26.9355 225.887 25.3701C226.865 23.8046 228.158 22.5581 229.768 21.6304C231.378 20.7027 233.161 20.2389 235.116 20.2389C237.128 20.2389 238.91 20.7027 240.463 21.6304C242.015 22.5581 243.252 23.8046 244.172 25.3701C245.149 26.9355 245.638 28.6749 245.638 30.5883V57.1139H255.47V30.5883C255.47 27.1675 254.665 24.0366 253.055 21.1956C251.445 18.2966 249.116 16.0064 246.069 14.325C243.079 12.5856 239.428 11.7159 235.116 11.7159C233.046 11.7159 231.033 11.9768 229.078 12.4986C227.181 13.0204 225.398 13.8611 223.731 15.0207C222.121 16.1223 220.741 17.5139 219.591 19.1953H219.505C218.355 17.5139 216.946 16.1223 215.279 15.0207C213.669 13.8611 211.915 13.0204 210.017 12.4986C208.12 11.9768 206.136 11.7159 204.066 11.7159C199.811 11.7159 196.16 12.5856 193.113 14.325C190.065 16.0064 187.737 18.2966 186.127 21.1956C184.517 24.0366 183.712 27.1675 183.712 30.5883Z" fill="#7D4DE2"/>
</svg>
