<svg width="201" height="201" viewBox="0 0 201 201" fill="none" xmlns="http://www.w3.org/2000/svg">
<g filter="url(#filter0_d_700_11088)">
<rect x="58.0586" y="27" width="120" height="120" rx="60" transform="rotate(15 58.0586 27)" fill="#FEC009"/>
<g clip-path="url(#clip0_700_11088)">
<path fill-rule="evenodd" clip-rule="evenodd" d="M84.5403 89.8654C85.0472 87.8269 83.7195 85.7144 81.5526 85.1338C80.9613 84.9646 80.3382 84.9339 79.7253 85.0437C79.1123 85.1535 78.5239 85.4013 77.9997 85.7703L74.5072 87.8449C73.9972 88.1478 73.7403 88.7448 73.8709 89.3235L73.9297 89.5838C74.7911 93.3997 73.9054 97.4009 71.5142 100.497C71.4817 100.618 71.4911 100.746 71.5404 100.857C71.7668 101.346 73.0134 102.363 73.6885 102.915C73.817 103.019 73.9248 103.107 74.001 103.172C74.4768 103.573 75.0318 103.858 75.6285 104.007C77.8182 104.594 80.857 103.614 81.4085 101.556C81.4587 101.367 81.4915 101.173 81.5062 100.979C82.1985 100.88 82.8558 100.569 83.3965 100.083C83.9375 99.5969 84.3383 98.9575 84.5491 98.2442C84.7688 97.4079 84.6953 96.526 84.3424 95.7658C85.0281 95.2838 85.5328 94.5568 85.7606 93.7228C85.9311 93.0094 85.9069 92.2662 85.6904 91.5821C85.474 90.898 85.0746 90.302 84.5403 89.8654ZM83.2734 95.8853C83.471 96.1841 83.6039 96.5273 83.6628 96.8912C83.7216 97.2552 83.7053 97.6314 83.6148 97.9938C83.4278 98.5727 83.0746 99.0799 82.6064 99.4419C82.1381 99.8038 81.5792 100.002 81.0106 100.007C81.0061 100.008 81.0021 100.009 80.998 100.011C80.9944 100.012 80.9908 100.014 80.9868 100.014C80.6778 99.9135 80.4192 99.6923 80.2617 99.3939C80.1754 99.2304 80.1228 99.0503 80.1053 98.8647C80.0807 98.6045 79.9355 98.3467 79.6831 98.279C79.4183 98.2081 79.1421 98.3699 79.1294 98.6438C79.1103 99.0566 79.1903 99.467 79.3655 99.8345C79.6108 100.349 80.026 100.745 80.5344 100.948C80.5248 101.069 80.5046 101.189 80.4741 101.306C80.1569 102.489 78.5411 103.139 77.0509 103.143C76.5832 102.777 76.2353 101.95 76.1514 101.343C76.1259 101.158 75.9523 101.033 75.7736 101.071L75.3826 101.153C75.1964 101.192 75.0727 101.371 75.0993 101.564C75.1575 101.985 75.2988 102.449 75.5043 102.877C75.2177 102.764 74.9478 102.609 74.7025 102.416C74.6391 102.366 74.5352 102.287 74.406 102.189C73.8117 101.74 72.6824 100.886 72.5012 100.551C74.8552 97.5842 75.7392 93.7109 74.9052 90.0165L74.815 89.6168C74.6804 89.0206 74.9672 88.409 75.5117 88.1313L76.0669 87.8481C76.6073 88.1029 77.1255 88.8588 77.3314 89.4457C77.3931 89.6219 77.5881 89.7102 77.7559 89.6379L78.1227 89.48C78.2975 89.4048 78.3831 89.2041 78.3188 89.0207C78.1057 88.4129 77.6871 87.7481 77.1807 87.2799L78.6786 86.5159C79.0737 86.2727 79.5076 86.114 79.9548 86.0492C80.4021 85.9844 80.8537 86.0148 81.2834 86.1385C82.8726 86.5644 83.8829 88.0171 83.6373 89.4495C83.1252 89.4257 82.6144 89.5883 82.1886 89.9108C81.8925 90.135 81.6498 90.4273 81.4779 90.7621C81.3531 91.0052 81.5113 91.2822 81.7752 91.3529C82.0284 91.4208 82.2836 91.2689 82.4351 91.055C82.5324 90.9175 82.6526 90.7982 82.7907 90.7039C83.0557 90.5229 83.369 90.446 83.6748 90.4869C84.1363 90.7867 84.4945 91.2343 84.7007 91.7686C84.9066 92.3028 84.9506 92.8978 84.8263 93.4724C84.7235 93.8316 84.5495 94.1656 84.3163 94.4514C84.0833 94.7372 83.7966 94.9681 83.476 95.1282C83.4131 95.1619 83.3573 95.2093 83.3123 95.2672C83.2671 95.3251 83.234 95.3922 83.2148 95.4639C83.1956 95.5357 83.1909 95.6104 83.2009 95.683C83.2111 95.7557 83.2358 95.8247 83.2734 95.8853Z" fill="#7D4DE2"/>
<path d="M66.3753 81.6082C65.1723 80.7281 62.4567 78.9778 62.1628 82.1995C62.062 83.3024 62.366 84.3753 62.792 85.3223C62.1897 86.2184 61.9235 87.4175 61.9643 88.4767C62.0112 89.6815 62.3879 90.7342 62.9475 91.6566C62.923 91.7094 62.9029 91.7674 62.8921 91.8328C62.2375 95.8077 64.3598 98.8285 67.3749 99.4957C67.112 99.9158 66.8486 100.336 66.5852 100.757C66.429 101.006 66.5364 101.452 66.7921 101.48C72.099 102.058 74.2781 93.6475 72.7646 88.8863C71.7046 85.553 68.8001 83.3819 66.3753 81.6082ZM67.7168 100.517C67.9613 100.126 68.2057 99.7358 68.4503 99.345C68.6746 98.987 68.4116 98.6376 68.1341 98.61C68.294 98.6256 68.0073 98.5883 67.9557 98.5788C67.7807 98.5448 67.6068 98.505 67.4353 98.4571C66.8302 98.2877 66.0438 97.9708 65.5191 97.602C63.9958 96.5312 63.4466 94.7129 63.6212 92.6097C64.5465 93.7497 65.7186 94.6585 66.7607 95.3907C67.1998 95.6995 67.6708 94.8166 67.2324 94.5086C65.3925 93.2157 62.8749 91.254 62.7896 88.2776C62.7728 87.6896 62.872 87.0715 63.0947 86.512C63.125 86.4367 63.1823 86.3218 63.2408 86.21C63.2965 86.3093 63.3521 86.4075 63.4077 86.5024C64.4426 88.2635 65.8305 89.6706 67.4068 90.7108C67.8531 91.0051 68.3248 90.1229 67.8786 89.8286C66.3452 88.8163 64.9786 87.442 64.0009 85.6974C63.4961 84.7969 62.5219 82.9307 63.0939 81.6767C63.6144 80.536 65.3639 82.096 65.9034 82.4909C67.2614 83.4849 68.5376 84.6407 69.7677 85.8351C72.0258 88.0273 73.0573 91.5449 72.0432 95.2486C71.3256 97.869 70.0308 100.355 67.7168 100.517Z" fill="#1B0056"/>
<path fill-rule="evenodd" clip-rule="evenodd" d="M93.9188 108.591C93.1713 108.391 92.5535 108.071 92.0654 107.632C91.5886 107.186 91.2625 106.664 91.087 106.068C90.9139 105.462 90.9176 104.821 91.0985 104.147C91.2889 103.436 91.5956 102.848 92.0185 102.382C92.4413 101.917 92.9371 101.597 93.5059 101.421C94.0747 101.246 94.6766 101.243 95.3112 101.413C96.0239 101.604 96.5686 101.919 96.9451 102.357C97.3214 102.795 97.5472 103.309 97.6222 103.898C97.7061 104.49 97.6599 105.114 97.4839 105.771C97.4598 105.861 97.4278 105.963 97.3878 106.078C97.3476 106.192 97.3105 106.279 97.2761 106.337L92.5556 105.072C92.5114 105.446 92.5566 105.781 92.6915 106.078C92.8288 106.365 93.0326 106.613 93.3032 106.821C93.5762 107.019 93.8994 107.168 94.2732 107.269L96.0598 107.747L95.7054 109.07L93.9188 108.591ZM92.8247 104.016L96.1109 104.897C96.1479 104.723 96.1678 104.545 96.1699 104.363C96.181 104.182 96.1637 104.004 96.1176 103.828C96.0804 103.654 96.0111 103.496 95.9096 103.353C95.8193 103.203 95.6955 103.073 95.5385 102.964C95.3839 102.845 95.1935 102.756 94.9676 102.695C94.7067 102.625 94.462 102.618 94.2331 102.672C94.0065 102.717 93.8008 102.807 93.6159 102.941C93.4334 103.065 93.2742 103.225 93.1381 103.42C93.0131 103.608 92.9085 103.807 92.8247 104.016ZM107.27 112.412C106.564 112.223 105.982 111.897 105.522 111.433C105.065 110.96 104.749 110.408 104.573 109.777C104.409 109.14 104.418 108.481 104.601 107.8C104.783 107.119 105.104 106.548 105.562 106.087C106.032 105.619 106.582 105.299 107.212 105.127C107.844 104.946 108.513 104.95 109.218 105.139C109.915 105.326 110.492 105.656 110.949 106.128C111.408 106.592 111.721 107.138 111.888 107.767C112.063 108.398 112.059 109.058 111.874 109.748C111.691 110.429 111.365 111.004 110.895 111.471C110.437 111.932 109.891 112.253 109.259 112.434C108.629 112.606 107.966 112.599 107.27 112.412ZM107.627 111.077C108.047 111.19 108.44 111.188 108.806 111.072C109.174 110.947 109.49 110.735 109.752 110.435C110.014 110.136 110.203 109.768 110.32 109.332C110.434 108.905 110.453 108.497 110.376 108.106C110.301 107.707 110.134 107.365 109.875 107.082C109.619 106.789 109.28 106.586 108.861 106.474C108.432 106.359 108.034 106.364 107.665 106.489C107.308 106.608 106.994 106.816 106.723 107.113C106.461 107.412 106.271 107.78 106.155 108.216C106.04 108.643 106.021 109.056 106.095 109.455C106.181 109.848 106.348 110.19 106.596 110.48C106.855 110.763 107.199 110.963 107.627 111.077ZM123.246 116.449C122.471 116.242 121.83 115.916 121.322 115.471C120.825 115.02 120.484 114.494 120.297 113.894C120.113 113.286 120.111 112.644 120.292 111.969C120.482 111.258 120.794 110.671 121.227 110.209C121.66 109.746 122.169 109.429 122.755 109.258C123.341 109.088 123.963 109.09 124.62 109.266C125.359 109.464 125.924 109.784 126.317 110.227C126.71 110.67 126.948 111.187 127.031 111.778C127.123 112.372 127.08 112.997 126.904 113.654C126.88 113.744 126.848 113.846 126.808 113.961C126.767 114.075 126.73 114.162 126.695 114.22L121.806 112.91C121.763 113.284 121.813 113.621 121.955 113.919C122.1 114.209 122.312 114.459 122.594 114.669C122.878 114.87 123.213 115.023 123.6 115.127L125.451 115.622L125.096 116.945L123.246 116.449ZM122.074 111.853L125.478 112.765C125.515 112.592 125.534 112.414 125.534 112.231C125.544 112.05 125.524 111.871 125.475 111.694C125.435 111.52 125.362 111.36 125.256 111.216C125.161 111.065 125.032 110.934 124.869 110.823C124.708 110.703 124.511 110.611 124.277 110.549C124.007 110.476 123.754 110.466 123.518 110.519C123.284 110.562 123.072 110.65 122.882 110.782C122.695 110.906 122.532 111.065 122.393 111.259C122.265 111.447 122.159 111.645 122.074 111.853ZM128.632 112.662L127.324 117.542L128.787 117.934L130.077 113.121C130.134 112.907 130.234 112.753 130.378 112.657C130.53 112.565 130.708 112.545 130.912 112.6L132.209 112.948L132.56 111.637L130.996 111.218C130.419 111.064 129.919 111.116 129.495 111.375C129.082 111.627 128.794 112.056 128.632 112.662ZM135.107 117.393L134.549 119.478L136.035 119.876L136.598 117.778C137.117 117.82 137.593 117.75 138.024 117.566C138.466 117.376 138.843 117.1 139.154 116.74C139.465 116.379 139.689 115.942 139.827 115.428L140.288 113.708L138.788 113.306L138.331 115.013C138.237 115.364 138.075 115.654 137.846 115.882C137.628 116.104 137.369 116.256 137.067 116.339C136.776 116.416 136.479 116.414 136.174 116.332C135.87 116.25 135.607 116.103 135.385 115.889C135.173 115.668 135.025 115.406 134.938 115.103C134.863 114.793 134.872 114.463 134.966 114.111L135.424 112.405L133.924 112.003L133.463 113.723C133.325 114.236 133.3 114.732 133.386 115.209C133.473 115.685 133.661 116.112 133.952 116.489C134.244 116.858 134.63 117.159 135.107 117.393ZM114.046 113.91C114.294 114.188 114.607 114.378 114.983 114.479C115.36 114.58 115.725 114.572 116.08 114.455C116.435 114.337 116.717 114.129 116.929 113.829L120.742 108.471L119.004 108.005L115.679 112.843C115.643 112.901 115.598 112.937 115.544 112.951C115.499 112.968 115.453 112.97 115.406 112.958C115.359 112.945 115.32 112.92 115.29 112.883C115.259 112.846 115.238 112.792 115.227 112.722L114.78 106.873L113.014 106.4L113.623 112.943C113.666 113.311 113.807 113.633 114.046 113.91ZM99.6171 109.631C100.066 110.076 100.627 110.389 101.302 110.57L102.551 110.904L102.902 109.594L101.627 109.253C101.235 109.147 100.908 108.964 100.648 108.704C100.399 108.436 100.233 108.119 100.148 107.753C100.063 107.386 100.073 107.007 100.178 106.614C100.283 106.222 100.464 105.889 100.721 105.614C100.978 105.339 101.28 105.152 101.626 105.054C101.984 104.949 102.359 104.949 102.752 105.055L104.027 105.396L104.378 104.086L103.129 103.751C102.454 103.57 101.811 103.561 101.2 103.722C100.59 103.883 100.061 104.181 99.6151 104.615C99.1715 105.041 98.8636 105.574 98.6917 106.216C98.5197 106.858 98.5183 107.479 98.6873 108.078C98.8587 108.668 99.1687 109.186 99.6171 109.631ZM87.2673 101.579L85.9598 106.459L87.4228 106.851L88.7124 102.038C88.7697 101.824 88.8701 101.669 89.0138 101.574C89.1661 101.481 89.3439 101.462 89.5473 101.516L90.8448 101.864L91.1959 100.554L89.6313 100.135C89.0547 99.9801 88.5543 100.032 88.1305 100.291C87.7174 100.544 87.4297 100.973 87.2673 101.579Z" fill="#1B0056"/>
<path fill-rule="evenodd" clip-rule="evenodd" d="M133.971 99.1045L131.596 107.968L132.96 108.334L135.335 99.4699L133.971 99.1045ZM124.076 105.671C124.471 106.128 125 106.445 125.664 106.622C126.092 106.737 126.483 106.769 126.838 106.718C127.193 106.667 127.509 106.562 127.785 106.403C128.064 106.234 128.306 106.041 128.511 105.823L128.538 105.831L128.191 107.125L129.761 107.545L130.695 104.058C130.875 103.386 130.892 102.739 130.747 102.116C130.614 101.487 130.321 100.941 129.87 100.48C129.429 100.012 128.832 99.6762 128.077 99.4739C127.313 99.2692 126.609 99.2559 125.967 99.4341C125.336 99.6056 124.796 99.9281 124.348 100.402C123.911 100.868 123.6 101.447 123.415 102.137C123.237 102.8 123.202 103.442 123.308 104.064C123.426 104.68 123.682 105.215 124.076 105.671ZM127.589 105.387C127.236 105.506 126.854 105.511 126.445 105.401C126.008 105.284 125.662 105.084 125.406 104.802C125.162 104.512 125.004 104.173 124.933 103.784C124.864 103.386 124.887 102.974 125.001 102.547C125.118 102.112 125.304 101.743 125.561 101.442C125.817 101.141 126.126 100.932 126.489 100.815C126.854 100.689 127.255 100.684 127.692 100.801C128.11 100.913 128.442 101.114 128.686 101.403C128.933 101.684 129.092 102.018 129.163 102.407C129.237 102.787 129.215 103.195 129.098 103.631C128.991 104.069 128.803 104.442 128.535 104.75C128.27 105.048 127.955 105.261 127.589 105.387ZM120.05 104.875C119.422 104.706 118.975 104.398 118.71 103.95C118.453 103.504 118.406 102.978 118.568 102.374L119.536 98.7593L118.317 98.4327L118.673 97.1061L119.892 97.4327L120.356 95.7L121.935 96.123L121.471 97.8557L123.673 98.4459L123.317 99.7725L121.115 99.1824L120.165 102.729C120.109 102.937 120.128 103.125 120.221 103.295C120.316 103.456 120.47 103.565 120.683 103.622L122.165 104.019L121.809 105.346L120.05 104.875ZM110.159 97.9711L109.095 101.939L110.652 102.356L111.712 98.4017C111.806 98.0507 111.964 97.7654 112.188 97.5455C112.422 97.3191 112.69 97.1689 112.99 97.0951C113.302 97.0146 113.611 97.0155 113.918 97.0977C114.234 97.1823 114.502 97.3362 114.723 97.5593C114.955 97.7758 115.116 98.0407 115.206 98.3542C115.298 98.6586 115.297 98.9864 115.203 99.3373L114.144 103.292L115.687 103.705L116.75 99.7372C116.909 99.1433 116.915 98.5807 116.767 98.0493C116.622 97.5088 116.336 97.0417 115.909 96.6477C115.495 96.2472 114.953 95.9575 114.286 95.7786C113.618 95.5997 113 95.5788 112.431 95.7157C111.865 95.8437 111.384 96.1054 110.988 96.5008C110.594 96.8872 110.318 97.3773 110.159 97.9711ZM105.111 100.872C104.363 100.671 103.745 100.351 103.257 99.9121C102.78 99.466 102.454 98.9447 102.279 98.3479C102.106 97.7422 102.109 97.1018 102.29 96.427C102.481 95.7161 102.787 95.128 103.21 94.6627C103.633 94.1973 104.129 93.8769 104.698 93.7014C105.267 93.526 105.868 93.5232 106.503 93.6933C107.216 93.8843 107.761 94.199 108.137 94.6374C108.513 95.0758 108.739 95.5895 108.814 96.1786C108.898 96.7701 108.852 97.3943 108.676 98.0512C108.652 98.1411 108.62 98.2435 108.58 98.3581C108.54 98.4728 108.502 98.5592 108.468 98.6176L103.747 97.3527C103.703 97.7266 103.748 98.0618 103.883 98.3583C104.021 98.6458 104.224 98.8934 104.495 99.1009C104.768 99.2994 105.091 99.4487 105.465 99.5489L107.252 100.028L106.897 101.35L105.111 100.872ZM104.017 96.2964L107.303 97.1769C107.34 97.0037 107.36 96.8257 107.362 96.6431C107.373 96.4628 107.356 96.2845 107.309 96.1082C107.272 95.9343 107.203 95.7759 107.101 95.6329C107.011 95.4834 106.887 95.3538 106.73 95.2442C106.576 95.1256 106.386 95.0361 106.159 94.9755C105.899 94.9057 105.654 94.8979 105.425 94.9523C105.198 94.9977 104.993 95.0872 104.808 95.2209C104.625 95.3456 104.466 95.5055 104.33 95.7005C104.205 95.8888 104.101 96.0875 104.017 96.2964ZM89.7436 92.3418L88.6406 96.4585L90.1665 96.8673L91.2696 92.7507C91.3491 92.4537 91.4928 92.2029 91.7007 91.9982C91.9176 91.7959 92.1658 91.6551 92.4453 91.5757C92.7336 91.4986 93.0295 91.5007 93.3329 91.582C93.6363 91.6633 93.8893 91.8083 94.0917 92.0168C94.3029 92.2277 94.4519 92.475 94.5384 92.7586C94.6252 93.0422 94.6285 93.3324 94.5489 93.6294L93.4459 97.746L94.9718 98.1549L96.0749 94.0382C96.1544 93.7413 96.2981 93.4905 96.5062 93.2858C96.7229 93.0835 96.9754 92.9438 97.264 92.8668C97.5523 92.7898 97.8482 92.7919 98.1517 92.8732C98.4639 92.9569 98.7215 93.1031 98.9238 93.3116C99.1261 93.5201 99.2661 93.765 99.3437 94.0462C99.4305 94.3298 99.4338 94.62 99.3543 94.917L98.2512 99.0336L99.7771 99.4425L100.88 95.3258C101.022 94.7949 101.028 94.2756 100.896 93.7677C100.767 93.2509 100.501 92.7986 100.098 92.4109C99.7058 92.0166 99.1754 91.7298 98.5061 91.5505C98.1849 91.4644 97.8618 91.4212 97.5367 91.4209C97.2204 91.423 96.9089 91.4794 96.6018 91.5899C96.3062 91.694 96.034 91.8525 95.7857 92.0657L95.7723 92.0621C95.6638 91.7533 95.503 91.4788 95.2902 91.2385C95.0884 90.9916 94.8513 90.7882 94.5785 90.6283C94.3056 90.4684 94.0087 90.3454 93.6874 90.2593C93.0271 90.0824 92.4243 90.0656 91.8791 90.2088C91.3362 90.343 90.8796 90.6016 90.509 90.9845C90.1411 91.3585 89.8859 91.8109 89.7436 92.3418Z" fill="#7D4DE2"/>
</g>
</g>
<defs>
<filter id="filter0_d_700_11088" x="-13" y="-13" width="226.969" height="226.969" filterUnits="userSpaceOnUse" color-interpolation-filters="sRGB">
<feFlood flood-opacity="0" result="BackgroundImageFix"/>
<feColorMatrix in="SourceAlpha" type="matrix" values="0 0 0 0 0 0 0 0 0 0 0 0 0 0 0 0 0 0 127 0" result="hardAlpha"/>
<feOffset/>
<feGaussianBlur stdDeviation="20"/>
<feColorMatrix type="matrix" values="0 0 0 0 0.133333 0 0 0 0 0.145098 0 0 0 0 0.231373 0 0 0 0.08 0"/>
<feBlend mode="normal" in2="BackgroundImageFix" result="effect1_dropShadow_700_11088"/>
<feBlend mode="normal" in="SourceGraphic" in2="effect1_dropShadow_700_11088" result="shape"/>
</filter>
<clipPath id="clip0_700_11088">
<rect width="84" height="20" fill="white" transform="translate(62.5039 79.955) rotate(15)"/>
</clipPath>
</defs>
</svg>
