<svg width="56" height="56" viewBox="0 0 56 56" fill="none" xmlns="http://www.w3.org/2000/svg">
<g clip-path="url(#clip0_729_12830)">
<path d="M9.3349 56H46.6682C47.6584 56 48.608 55.6066 49.3081 54.9065C50.0082 54.2064 50.4016 53.2568 50.4016 52.2666V13.0666C50.4016 12.0765 50.0082 11.1269 49.3081 10.4268C48.608 9.72664 47.6584 9.33331 46.6682 9.33331H43.2998C43.2 9.27731 43.1038 9.21384 42.9993 9.16531V9.09998C42.9965 7.38163 42.3549 5.72571 41.1992 4.45409C40.0435 3.18246 38.4562 2.38597 36.746 2.21944C35.8534 1.46017 34.7846 0.93711 33.6374 0.698215C32.4902 0.459319 31.3014 0.512235 30.18 0.85211C29.2915 0.295997 28.2611 0.00889692 27.2131 0.0254584C26.1651 0.0420199 25.1443 0.361535 24.2738 0.945444C23.2382 0.492434 22.0752 0.422747 20.9929 0.748853C19.9106 1.07496 18.9797 1.77557 18.3668 2.72531C17.193 2.767 16.0761 3.24116 15.2308 4.05663C14.3855 4.87209 13.8716 5.97126 13.7878 7.14278C13.1135 7.72397 12.6161 8.48302 12.3524 9.33331H9.3349C8.34475 9.33331 7.39517 9.72664 6.69503 10.4268C5.99489 11.1269 5.60156 12.0765 5.60156 13.0666V52.2666C5.60156 53.2568 5.99489 54.2064 6.69503 54.9065C7.39517 55.6066 8.34475 56 9.3349 56ZM15.2476 8.37011C15.3743 8.28249 15.4773 8.16487 15.5475 8.02775C15.6177 7.89062 15.6528 7.73826 15.6498 7.58424L15.6433 7.46664C15.6475 6.70204 15.9542 5.97018 16.4963 5.431C17.0385 4.89182 17.772 4.58917 18.5366 4.58918C18.63 4.58918 18.7233 4.59478 18.8166 4.60318C19.008 4.62153 19.2003 4.58037 19.3673 4.48531C19.5344 4.39026 19.668 4.24596 19.75 4.07211C19.9235 3.70308 20.1732 3.37491 20.4825 3.10912C20.7918 2.84333 21.1537 2.64593 21.5447 2.52986C21.9356 2.4138 22.3467 2.38168 22.7509 2.43563C23.1552 2.48958 23.5434 2.62838 23.8902 2.84291C24.0612 2.9477 24.2613 2.99466 24.461 2.97685C24.6607 2.95903 24.8494 2.87737 24.999 2.74398C25.6128 2.21338 26.3912 1.91135 27.2023 1.88907C28.0133 1.86678 28.8071 2.12562 29.4492 2.62171C29.5769 2.72354 29.7291 2.79006 29.8906 2.81462C30.0521 2.83919 30.2172 2.82095 30.3694 2.76171C31.2689 2.41508 32.2479 2.32912 33.1941 2.51369C34.1402 2.69826 35.0151 3.14589 35.7184 3.80518C35.8795 3.95752 36.0896 4.04751 36.311 4.05904C37.0047 4.08602 37.6853 4.25663 38.3097 4.56008C38.9341 4.86353 39.4887 5.29322 39.9385 5.822C40.3883 6.35077 40.7236 6.96711 40.923 7.63207C41.1224 8.29703 41.1817 8.99613 41.0972 9.68518C41.0715 9.90549 41.1251 10.1278 41.2484 10.3121C41.3717 10.4965 41.5567 10.6309 41.7701 10.6913C42.1997 10.8165 42.5943 11.0402 42.9224 11.3445C43.2505 11.6488 43.5031 12.0255 43.6602 12.4445C43.8172 12.8636 43.8744 13.3135 43.8272 13.7585C43.78 14.2035 43.6296 14.6314 43.3881 15.0082C43.1466 15.3849 42.8206 15.7002 42.4359 15.9289C42.0513 16.1576 41.6186 16.2935 41.1722 16.3257C40.7258 16.3579 40.2781 16.2857 39.8646 16.1146C39.4511 15.9435 39.0831 15.6784 38.79 15.3402C38.6884 15.2238 38.5594 15.1345 38.4147 15.0802C38.2701 15.0259 38.1142 15.0083 37.9611 15.0291C37.8079 15.05 37.6624 15.1085 37.5375 15.1994C37.4125 15.2904 37.3121 15.4109 37.2453 15.5502C36.8826 16.3038 36.3709 16.976 35.7412 17.5264C35.1116 18.0767 34.3769 18.4938 33.5816 18.7524C32.7863 19.0111 31.9468 19.1059 31.1139 19.0311C30.2809 18.9564 29.4717 18.7136 28.7352 18.3176C28.5207 18.202 28.2695 18.1749 28.0353 18.242C27.8011 18.3092 27.6024 18.4653 27.4817 18.6769C27.112 19.3237 26.5688 19.8542 25.9135 20.2085C25.2581 20.5629 24.5167 20.7269 23.7731 20.682C23.0294 20.6372 22.3132 20.3853 21.7052 19.9547C21.0971 19.5242 20.6216 18.9322 20.3324 18.2457C20.0986 17.674 19.9959 17.0572 20.0318 16.4406C20.1177 14.6122 22.0581 13.0666 24.2682 13.0666H28.0016C28.2505 13.081 28.4996 13.0426 28.7326 12.9538C28.9655 12.8651 29.1771 12.7281 29.3534 12.5518C29.5297 12.3755 29.6667 12.164 29.7554 11.931C29.8442 11.698 29.8826 11.4489 29.8682 11.2L29.8766 10.2666H31.7349C31.9824 10.2666 32.2198 10.1683 32.3949 9.99328C32.5699 9.81824 32.6682 9.58085 32.6682 9.33331C32.6682 9.08577 32.5699 8.84838 32.3949 8.67334C32.2198 8.49831 31.9824 8.39998 31.7349 8.39998H29.8682C29.6193 8.38561 29.3702 8.42405 29.1372 8.51278C28.9043 8.6015 28.6927 8.73851 28.5164 8.9148C28.3401 9.09108 28.2031 9.30266 28.1144 9.53565C28.0256 9.76863 27.9872 10.0178 28.0016 10.2666L27.9932 11.2H24.2682C21.0389 11.2 18.3005 13.5109 18.1652 16.351C18.1568 16.5172 18.1652 16.6786 18.1652 16.8401C17.1729 16.7496 16.2507 16.2898 15.5813 15.5518C14.9118 14.8137 14.5439 13.8512 14.5504 12.8548C14.5504 12.8454 14.5569 12.754 14.5569 12.7437C14.5638 12.5596 14.5164 12.3775 14.4206 12.2201C14.0374 11.5952 13.9094 10.8468 14.063 10.1301C14.2166 9.41329 14.6401 8.78311 15.2457 8.37011H15.2476ZM41.0682 18.4706C41.014 19.5623 40.5302 20.5881 39.7223 21.3243C38.9145 22.0605 37.8482 22.4472 36.7562 22.4C36.689 22.4032 36.6216 22.4014 36.5546 22.3944C36.513 22.3872 36.4709 22.3828 36.4286 22.3813C36.1874 22.3722 35.9476 22.3393 35.7128 22.2833C34.7422 22.0662 33.8747 21.5247 33.2534 20.748C35.3149 20.3318 37.1338 19.1306 38.3261 17.3982C39.1105 17.9212 40.0322 18.2002 40.9749 18.2C41.002 18.2 41.0262 18.1925 41.0524 18.1925C41.0552 18.2849 41.0682 18.3773 41.0682 18.4706ZM31.1469 20.8973C31.5543 21.7093 32.1391 22.4192 32.8581 22.9745C33.577 23.5298 34.4117 23.9162 35.3002 24.1052C35.359 24.1182 35.4113 24.1248 35.4682 24.136V27.1133C35.4675 27.3041 35.4054 27.4897 35.2912 27.6426C35.177 27.7954 35.0167 27.9076 34.834 27.9625C34.6512 28.0174 34.4556 28.0121 34.2761 27.9474C34.0966 27.8828 33.9425 27.7621 33.8368 27.6033L31.1973 23.6497C30.9434 23.2647 30.5977 22.9489 30.1914 22.7307C29.785 22.5125 29.3308 22.3989 28.8696 22.4H28.4682C28.2039 22.3998 27.945 22.3247 27.7215 22.1835C27.498 22.0423 27.3191 21.8406 27.2054 21.602C27.7419 21.2553 28.218 20.823 28.6148 20.3224C29.4224 20.6489 30.2774 20.8436 31.1469 20.8973ZM7.46823 13.0666C7.46823 12.5716 7.6649 12.0968 8.01496 11.7467C8.36503 11.3966 8.83983 11.2 9.3349 11.2H12.1638C12.2232 11.8054 12.3991 12.3936 12.6818 12.9322C12.6924 14.4747 13.3116 15.9507 14.4047 17.0391C15.4978 18.1274 16.9764 18.7402 18.5189 18.7441C18.5282 18.7702 18.5432 18.7926 18.5534 18.8188C18.5814 18.8916 18.602 18.9672 18.6337 19.039C18.6575 19.0863 18.6856 19.1313 18.7177 19.1734C19.289 20.4205 20.2841 21.4246 21.5259 22.0072C22.7678 22.5897 24.176 22.713 25.5002 22.3552C25.759 22.9253 26.1766 23.4087 26.7029 23.7477C27.2293 24.0867 27.8422 24.2669 28.4682 24.2666H28.8696C29.0227 24.2662 29.1736 24.304 29.3085 24.3765C29.4434 24.449 29.5582 24.554 29.6424 24.682L32.2837 28.6393C32.6118 29.1315 33.0894 29.5051 33.6461 29.705C34.2028 29.9049 34.809 29.9205 35.3752 29.7494C35.9414 29.5783 36.4376 29.2297 36.7905 28.7551C37.1433 28.2804 37.3342 27.7048 37.3349 27.1133V24.2396C38.8198 24.1501 40.2177 23.5087 41.2538 22.4413C42.29 21.3739 42.8896 19.9576 42.9349 18.4706C42.9328 18.244 42.9166 18.0177 42.8864 17.793C43.7309 17.4247 44.45 16.8184 44.9559 16.0482C45.4617 15.278 45.7324 14.3773 45.7349 13.4558C45.7308 12.666 45.5273 11.8901 45.1432 11.2H46.6682C47.1633 11.2 47.6381 11.3966 47.9882 11.7467C48.3382 12.0968 48.5349 12.5716 48.5349 13.0666V52.2666C48.5349 52.7617 48.3382 53.2365 47.9882 53.5866C47.6381 53.9366 47.1633 54.1333 46.6682 54.1333H9.3349C8.83983 54.1333 8.36503 53.9366 8.01496 53.5866C7.6649 53.2365 7.46823 52.7617 7.46823 52.2666V13.0666Z" fill="#0A6D77"/>
<path d="M13.0656 37.3334H20.5323C21.2749 37.3334 21.9871 37.0384 22.5122 36.5133C23.0373 35.9882 23.3323 35.276 23.3323 34.5334V27.0667C23.3323 26.3241 23.0373 25.6119 22.5122 25.0868C21.9871 24.5617 21.2749 24.2667 20.5323 24.2667H13.0656C12.323 24.2667 11.6108 24.5617 11.0857 25.0868C10.5606 25.6119 10.2656 26.3241 10.2656 27.0667V34.5334C10.2656 35.276 10.5606 35.9882 11.0857 36.5133C11.6108 37.0384 12.323 37.3334 13.0656 37.3334ZM12.1323 27.0667C12.1323 26.8192 12.2306 26.5818 12.4057 26.4068C12.5807 26.2317 12.8181 26.1334 13.0656 26.1334H20.5323C20.7798 26.1334 21.0172 26.2317 21.1923 26.4068C21.3673 26.5818 21.4656 26.8192 21.4656 27.0667V34.5334C21.4656 34.7809 21.3673 35.0183 21.1923 35.1934C21.0172 35.3684 20.7798 35.4667 20.5323 35.4667H13.0656C12.8181 35.4667 12.5807 35.3684 12.4057 35.1934C12.2306 35.0183 12.1323 34.7809 12.1323 34.5334V27.0667Z" fill="#0A6D77"/>
<path d="M13.0656 52.2666H20.5323C21.2749 52.2666 21.9871 51.9716 22.5122 51.4465C23.0373 50.9214 23.3323 50.2092 23.3323 49.4666V42C23.3323 41.2573 23.0373 40.5452 22.5122 40.0201C21.9871 39.495 21.2749 39.2 20.5323 39.2H13.0656C12.323 39.2 11.6108 39.495 11.0857 40.0201C10.5606 40.5452 10.2656 41.2573 10.2656 42V49.4666C10.2656 50.2092 10.5606 50.9214 11.0857 51.4465C11.6108 51.9716 12.323 52.2666 13.0656 52.2666ZM12.1323 42C12.1323 41.7524 12.2306 41.515 12.4057 41.34C12.5807 41.165 12.8181 41.0666 13.0656 41.0666H20.5323C20.7798 41.0666 21.0172 41.165 21.1923 41.34C21.3673 41.515 21.4656 41.7524 21.4656 42V49.4666C21.4656 49.7142 21.3673 49.9516 21.1923 50.1266C21.0172 50.3016 20.7798 50.4 20.5323 50.4H13.0656C12.8181 50.4 12.5807 50.3016 12.4057 50.1266C12.2306 49.9516 12.1323 49.7142 12.1323 49.4666V42Z" fill="#0A6D77"/>
<path d="M15.207 33.3265C15.382 33.5016 15.6194 33.5999 15.8669 33.6H15.9332C16.0667 33.5902 16.1966 33.5518 16.314 33.4874C16.4314 33.423 16.5336 33.3341 16.6136 33.2267L19.4136 29.4933C19.4871 29.3953 19.5406 29.2837 19.571 29.165C19.6015 29.0462 19.6082 28.9227 19.5909 28.8013C19.5735 28.68 19.5325 28.5633 19.47 28.4578C19.4076 28.3523 19.325 28.2602 19.2269 28.1867C19.1289 28.1131 19.0173 28.0596 18.8986 28.0292C18.7798 27.9988 18.6563 27.992 18.5349 28.0094C18.4136 28.0267 18.2969 28.0678 18.1914 28.1302C18.0859 28.1927 17.9938 28.2753 17.9203 28.3733L15.7661 31.2461L15.5935 31.0735C15.4174 30.9035 15.1817 30.8094 14.9369 30.8115C14.6922 30.8136 14.4581 30.9118 14.2851 31.0848C14.112 31.2579 14.0139 31.492 14.0118 31.7367C14.0096 31.9814 14.1037 32.2172 14.2737 32.3932L15.207 33.3265Z" fill="#0A6D77"/>
<path d="M15.207 48.2599C15.382 48.4349 15.6194 48.5333 15.8669 48.5334H15.9332C16.0667 48.5236 16.1966 48.4852 16.314 48.4208C16.4314 48.3563 16.5336 48.2674 16.6136 48.16L19.4136 44.4267C19.5621 44.2287 19.6259 43.9797 19.5909 43.7347C19.5559 43.4896 19.4249 43.2685 19.2269 43.12C19.0289 42.9715 18.78 42.9077 18.5349 42.9427C18.2899 42.9777 18.0688 43.1087 17.9203 43.3067L15.7661 46.1795L15.5935 46.0068C15.4174 45.8368 15.1817 45.7427 14.9369 45.7449C14.6922 45.747 14.4581 45.8451 14.2851 46.0182C14.112 46.1912 14.0139 46.4253 14.0118 46.67C14.0096 46.9148 14.1037 47.1505 14.2737 47.3266L15.207 48.2599Z" fill="#0A6D77"/>
<path d="M40.1326 28.9333H44.7992C45.0468 28.9333 45.2842 28.835 45.4592 28.6599C45.6342 28.4849 45.7326 28.2475 45.7326 28C45.7326 27.7524 45.6342 27.5151 45.4592 27.34C45.2842 27.165 45.0468 27.0667 44.7992 27.0667H40.1326C39.885 27.0667 39.6476 27.165 39.4726 27.34C39.2976 27.5151 39.1992 27.7524 39.1992 28C39.1992 28.2475 39.2976 28.4849 39.4726 28.6599C39.6476 28.835 39.885 28.9333 40.1326 28.9333Z" fill="#0A6D77"/>
<path d="M27.0661 33.5999H40.1328C40.3803 33.5999 40.6177 33.5016 40.7928 33.3266C40.9678 33.1515 41.0661 32.9141 41.0661 32.6666C41.0661 32.4191 40.9678 32.1817 40.7928 32.0066C40.6177 31.8316 40.3803 31.7333 40.1328 31.7333H27.0661C26.8186 31.7333 26.5812 31.8316 26.4062 32.0066C26.2311 32.1817 26.1328 32.4191 26.1328 32.6666C26.1328 32.9141 26.2311 33.1515 26.4062 33.3266C26.5812 33.5016 26.8186 33.5999 27.0661 33.5999Z" fill="#0A6D77"/>
<path d="M27.0661 28.9333H27.9995C28.247 28.9333 28.4844 28.835 28.6594 28.6599C28.8345 28.4849 28.9328 28.2475 28.9328 28C28.9328 27.7524 28.8345 27.5151 28.6594 27.34C28.4844 27.165 28.247 27.0667 27.9995 27.0667H27.0661C26.8186 27.0667 26.5812 27.165 26.4062 27.34C26.2311 27.5151 26.1328 27.7524 26.1328 28C26.1328 28.2475 26.2311 28.4849 26.4062 28.6599C26.5812 28.835 26.8186 28.9333 27.0661 28.9333Z" fill="#0A6D77"/>
<path d="M27.0661 48.5333H40.1328C40.3803 48.5333 40.6177 48.435 40.7928 48.2599C40.9678 48.0849 41.0661 47.8475 41.0661 47.6C41.0661 47.3524 40.9678 47.115 40.7928 46.94C40.6177 46.765 40.3803 46.6666 40.1328 46.6666H27.0661C26.8186 46.6666 26.5812 46.765 26.4062 46.94C26.2311 47.115 26.1328 47.3524 26.1328 47.6C26.1328 47.8475 26.2311 48.0849 26.4062 48.2599C26.5812 48.435 26.8186 48.5333 27.0661 48.5333Z" fill="#0A6D77"/>
<path d="M44.8003 42H43.8669C43.6194 42 43.382 42.0983 43.207 42.2734C43.0319 42.4484 42.9336 42.6858 42.9336 42.9333C42.9336 43.1809 43.0319 43.4183 43.207 43.5933C43.382 43.7683 43.6194 43.8667 43.8669 43.8667H44.8003C45.0478 43.8667 45.2852 43.7683 45.4602 43.5933C45.6353 43.4183 45.7336 43.1809 45.7336 42.9333C45.7336 42.6858 45.6353 42.4484 45.4602 42.2734C45.2852 42.0983 45.0478 42 44.8003 42Z" fill="#0A6D77"/>
<path d="M27.0661 43.8667H40.1328C40.3803 43.8667 40.6177 43.7683 40.7928 43.5933C40.9678 43.4183 41.0661 43.1809 41.0661 42.9333C41.0661 42.6858 40.9678 42.4484 40.7928 42.2734C40.6177 42.0983 40.3803 42 40.1328 42H27.0661C26.8186 42 26.5812 42.0983 26.4062 42.2734C26.2311 42.4484 26.1328 42.6858 26.1328 42.9333C26.1328 43.1809 26.2311 43.4183 26.4062 43.5933C26.5812 43.7683 26.8186 43.8667 27.0661 43.8667Z" fill="#0A6D77"/>
</g>
<defs>
<clipPath id="clip0_729_12830">
<rect width="56" height="56" fill="white"/>
</clipPath>
</defs>
</svg>
