<svg width="40" height="56" viewBox="0 0 40 56" fill="none" xmlns="http://www.w3.org/2000/svg">
<path d="M36.7984 7.46667H33.7184C33.5121 7.4618 33.3128 7.39039 33.1503 7.26307C32.9879 7.13575 32.8709 6.95934 32.8168 6.76013C31.6418 2.84293 26.2518 0 19.9984 0C13.7451 0 8.3551 2.84293 7.1763 6.7592C7.1226 6.95798 7.00625 7.13416 6.84451 7.2616C6.68277 7.38904 6.48427 7.46095 6.27844 7.46667H3.19844C2.45583 7.46667 1.74364 7.76167 1.21854 8.28677C0.693436 8.81187 0.398438 9.52406 0.398438 10.2667V53.2C0.398438 53.9426 0.693436 54.6548 1.21854 55.1799C1.74364 55.705 2.45583 56 3.19844 56H36.7984C37.541 56 38.2532 55.705 38.7783 55.1799C39.3034 54.6548 39.5984 53.9426 39.5984 53.2V10.2667C39.5984 9.52406 39.3034 8.81187 38.7783 8.28677C38.2532 7.76167 37.541 7.46667 36.7984 7.46667ZM37.7318 53.2C37.7318 53.4475 37.6334 53.6849 37.4584 53.86C37.2834 54.035 37.046 54.1333 36.7984 54.1333H3.19844C2.9509 54.1333 2.71351 54.035 2.53847 53.86C2.36344 53.6849 2.2651 53.4475 2.2651 53.2V10.2667C2.2651 10.0191 2.36344 9.78173 2.53847 9.6067C2.71351 9.43167 2.9509 9.33333 3.19844 9.33333H6.27844C6.88638 9.33043 7.47698 9.13047 7.96164 8.76345C8.44629 8.39642 8.79886 7.88213 8.96644 7.29773C9.89604 4.2 14.6402 1.86667 19.9984 1.86667C25.3567 1.86667 30.1008 4.2 31.0342 7.29867C31.2017 7.88228 31.5538 8.39592 32.0377 8.7627C32.5216 9.12949 33.1113 9.32969 33.7184 9.33333H36.7984C37.046 9.33333 37.2834 9.43167 37.4584 9.6067C37.6334 9.78173 37.7318 10.0191 37.7318 10.2667V53.2Z" fill="#0A6D77"/>
<path d="M19.9984 12.1333C20.7368 12.1333 21.4586 11.9144 22.0726 11.5042C22.6865 11.0939 23.165 10.5109 23.4476 9.82868C23.7302 9.14651 23.8041 8.39586 23.66 7.67166C23.516 6.94747 23.1604 6.28225 22.6383 5.76013C22.1162 5.23802 21.451 4.88245 20.7268 4.7384C20.0026 4.59435 19.2519 4.66828 18.5698 4.95085C17.8876 5.23342 17.3045 5.71193 16.8943 6.32587C16.4841 6.93981 16.2651 7.66162 16.2651 8.4C16.2651 9.39014 16.6584 10.3397 17.3586 11.0399C18.0587 11.74 19.0083 12.1333 19.9984 12.1333ZM19.9984 6.53333C20.3676 6.53333 20.7285 6.64281 21.0355 6.84792C21.3425 7.05303 21.5817 7.34457 21.723 7.68566C21.8643 8.02675 21.9013 8.40207 21.8292 8.76417C21.7572 9.12627 21.5794 9.45887 21.3184 9.71993C21.0573 9.98099 20.7247 10.1588 20.3626 10.2308C20.0005 10.3028 19.6252 10.2659 19.2841 10.1246C18.943 9.98329 18.6515 9.74403 18.4464 9.43706C18.2412 9.13009 18.1318 8.76919 18.1318 8.4C18.1318 7.90493 18.3284 7.43013 18.6785 7.08007C19.0286 6.73 19.5034 6.53333 19.9984 6.53333Z" fill="#0A6D77"/>
<path d="M33.0651 12.1333H28.3984C28.1509 12.1333 27.9135 12.2317 27.7385 12.4067C27.5634 12.5817 27.4651 12.8191 27.4651 13.0667C27.4651 13.3142 27.5634 13.5516 27.7385 13.7266C27.9135 13.9017 28.1509 14 28.3984 14H33.0651V49.4667H6.93177V14H11.5984C11.846 14 12.0834 13.9017 12.2584 13.7266C12.4334 13.5516 12.5318 13.3142 12.5318 13.0667C12.5318 12.8191 12.4334 12.5817 12.2584 12.4067C12.0834 12.2317 11.846 12.1333 11.5984 12.1333H6.93177C6.4367 12.1333 5.96191 12.33 5.61184 12.6801C5.26177 13.0301 5.06511 13.5049 5.06511 14V49.4667C5.06511 49.9617 5.26177 50.4365 5.61184 50.7866C5.96191 51.1367 6.4367 51.3333 6.93177 51.3333H33.0651C33.5602 51.3333 34.035 51.1367 34.385 50.7866C34.7351 50.4365 34.9318 49.9617 34.9318 49.4667V14C34.9318 13.5049 34.7351 13.0301 34.385 12.6801C34.035 12.33 33.5602 12.1333 33.0651 12.1333Z" fill="#0A6D77"/>
<path d="M9.73177 42.9333C9.48423 42.9333 9.24684 43.0317 9.0718 43.2067C8.89677 43.3817 8.79844 43.6191 8.79844 43.8667V45.7333C8.79844 45.9809 8.89677 46.2183 9.0718 46.3933C9.24684 46.5683 9.48423 46.6667 9.73177 46.6667C9.97931 46.6667 10.2167 46.5683 10.3917 46.3933C10.5668 46.2183 10.6651 45.9809 10.6651 45.7333V43.8667C10.6651 43.6191 10.5668 43.3817 10.3917 43.2067C10.2167 43.0317 9.97931 42.9333 9.73177 42.9333Z" fill="#0A6D77"/>
<path d="M10.6651 23.3333C10.6651 23.0858 10.5668 22.8484 10.3917 22.6734C10.2167 22.4983 9.97931 22.4 9.73177 22.4C9.48423 22.4 9.24684 22.4983 9.0718 22.6734C8.89677 22.8484 8.79844 23.0858 8.79844 23.3333V40.1333C8.79844 40.3809 8.89677 40.6183 9.0718 40.7933C9.24684 40.9683 9.48423 41.0667 9.73177 41.0667C9.97931 41.0667 10.2167 40.9683 10.3917 40.7933C10.5668 40.6183 10.6651 40.3809 10.6651 40.1333V23.3333Z" fill="#0A6D77"/>
<path d="M10.6651 17.7333C10.6651 17.4858 10.5668 17.2484 10.3917 17.0734C10.2167 16.8983 9.97931 16.8 9.73177 16.8C9.48423 16.8 9.24684 16.8983 9.0718 17.0734C8.89677 17.2484 8.79844 17.4858 8.79844 17.7333V19.6C8.79844 19.8475 8.89677 20.0849 9.0718 20.26C9.24684 20.435 9.48423 20.5333 9.73177 20.5333C9.97931 20.5333 10.2167 20.435 10.3917 20.26C10.5668 20.0849 10.6651 19.8475 10.6651 19.6V17.7333Z" fill="#0A6D77"/>
<path d="M18.9718 32.6041L19.6755 32.6685C20.934 32.6472 22.174 32.9731 23.2595 33.6103C23.6594 33.8603 23.9949 34.2009 24.239 34.6044C24.4832 35.0079 24.6291 35.4631 24.6651 35.9333C24.6651 37.7067 22.5278 39.2 19.9984 39.2C19.2282 39.2319 18.4605 39.0927 17.7504 38.7926C17.0403 38.4924 16.4056 38.0387 15.8918 37.464C15.8183 37.3634 15.7254 37.2786 15.6186 37.2145C15.5119 37.1504 15.3933 37.1083 15.27 37.0907C15.1467 37.0731 15.0211 37.0804 14.9007 37.1121C14.7803 37.1438 14.6674 37.1992 14.5687 37.2752C14.47 37.3512 14.3876 37.4462 14.3262 37.5546C14.2648 37.663 14.2257 37.7825 14.2112 37.9062C14.1967 38.0299 14.2072 38.1553 14.2419 38.2749C14.2766 38.3945 14.3349 38.5059 14.4134 38.6027C14.9892 39.2939 15.6973 39.8631 16.4961 40.277C17.2949 40.6908 18.1683 40.9409 19.0651 41.0125V44.8C19.0651 45.0475 19.1634 45.2849 19.3385 45.46C19.5135 45.635 19.7509 45.7333 19.9984 45.7333C20.246 45.7333 20.4834 45.635 20.6584 45.46C20.8334 45.2849 20.9318 45.0475 20.9318 44.8V41.0079C24.092 40.6504 26.5318 38.514 26.5318 35.9333C26.5066 35.1586 26.292 34.4018 25.9067 33.7292C25.5215 33.0565 24.9772 32.4886 24.3216 32.0749C22.9706 31.2421 21.4138 30.8031 19.8267 30.8075L19.2004 30.7515C17.6455 30.5611 15.3318 29.5465 15.3318 27.5333C15.3318 25.76 17.4691 24.2667 19.9984 24.2667C20.7695 24.2341 21.5381 24.3729 22.249 24.6731C22.9599 24.9733 23.5954 25.4274 24.1098 26.0027C24.1833 26.1032 24.2761 26.1881 24.3829 26.2522C24.4897 26.3163 24.6082 26.3584 24.7315 26.376C24.8548 26.3935 24.9804 26.3863 25.1008 26.3546C25.2213 26.3229 25.3342 26.2674 25.4328 26.1914C25.5315 26.1154 25.614 26.0204 25.6754 25.9121C25.7368 25.8037 25.7759 25.6842 25.7903 25.5605C25.8048 25.4367 25.7944 25.3114 25.7597 25.1918C25.7249 25.0722 25.6666 24.9607 25.5882 24.864C25.0118 24.1722 24.303 23.6027 23.5033 23.1888C22.7037 22.775 21.8294 22.5252 20.9318 22.4541V18.6667C20.9318 18.4191 20.8334 18.1817 20.6584 18.0067C20.4834 17.8317 20.246 17.7333 19.9984 17.7333C19.7509 17.7333 19.5135 17.8317 19.3385 18.0067C19.1634 18.1817 19.0651 18.4191 19.0651 18.6667V22.4588C15.9048 22.8163 13.4651 24.9527 13.4651 27.5333C13.4651 30.4192 16.2362 32.2681 18.9718 32.6041Z" fill="#0A6D77"/>
</svg>
