<svg width="56" height="56" viewBox="0 0 56 56" fill="none" xmlns="http://www.w3.org/2000/svg">
<g clip-path="url(#clip0_708_12741)">
<path d="M30.1139 0.116667C26.1988 -0.330687 22.2425 0.472445 18.8117 2.41103C15.3809 4.34962 12.6516 7.32421 11.0148 10.9088C9.37789 14.4933 8.91739 18.504 9.69923 22.3662C10.4811 26.2285 12.4651 29.7443 15.3673 32.41C16.6948 33.6311 17.7559 35.1131 18.4841 36.7633C19.2123 38.4135 19.5918 40.1963 19.599 42C18.9209 41.999 18.2657 42.2447 17.7554 42.6912C17.2451 43.1378 16.9147 43.7546 16.8257 44.4268C16.7367 45.099 16.8952 45.7806 17.2717 46.3446C17.6482 46.9085 18.217 47.3162 18.8719 47.4917C18.6994 47.9161 18.634 48.3764 18.6815 48.832C18.729 49.2877 18.8879 49.7246 19.1443 50.1043C19.4006 50.4839 19.7465 50.7946 20.1513 51.009C20.5562 51.2233 21.0076 51.3347 21.4657 51.3333H22.483C22.7024 52.6377 23.3768 53.8221 24.3867 54.6762C25.3965 55.5304 26.6763 55.9991 27.999 55.9991C29.3216 55.9991 30.6015 55.5304 31.6113 54.6762C32.6212 53.8221 33.2956 52.6377 33.515 51.3333H34.5323C34.9905 51.3349 35.442 51.2236 35.847 51.0093C36.2519 50.795 36.5979 50.4843 36.8544 50.1046C37.1108 49.725 37.2698 49.288 37.3174 48.8323C37.3649 48.3766 37.2995 47.9162 37.127 47.4917C37.782 47.3162 38.3508 46.9084 38.7273 46.3444C39.1038 45.7803 39.2623 45.0986 39.1732 44.4264C39.0841 43.7541 38.7535 43.1372 38.243 42.6908C37.7326 42.2443 37.0771 41.9988 36.399 42C36.4115 40.1891 36.7966 38.4001 37.5304 36.7444C38.2642 35.0888 39.331 33.6019 40.6643 32.3764C43.2904 29.9511 45.1649 26.8227 46.065 23.3632C46.965 19.9037 46.8528 16.2584 45.7416 12.8608C44.6304 9.46317 42.5671 6.45606 39.7967 4.1969C37.0264 1.93774 33.6656 0.521548 30.1139 0.116667ZM27.999 54.1333C27.1737 54.1302 26.3727 53.8538 25.7213 53.3472C25.0698 52.8406 24.6045 52.1324 24.3982 51.3333H31.5998C31.3935 52.1324 30.9282 52.8406 30.2767 53.3472C29.6252 53.8538 28.8243 54.1302 27.999 54.1333ZM34.5323 49.4667H21.4657C21.2181 49.4667 20.9807 49.3683 20.8057 49.1933C20.6307 49.0183 20.5323 48.7809 20.5323 48.5333C20.5323 48.2858 20.6307 48.0484 20.8057 47.8734C20.9807 47.6983 21.2181 47.6 21.4657 47.6H34.5323C34.7799 47.6 35.0173 47.6983 35.1923 47.8734C35.3673 48.0484 35.4657 48.2858 35.4657 48.5333C35.4657 48.7809 35.3673 49.0183 35.1923 49.1933C35.0173 49.3683 34.7799 49.4667 34.5323 49.4667ZM37.3323 44.8C37.3323 45.0475 37.234 45.2849 37.059 45.46C36.8839 45.635 36.6465 45.7333 36.399 45.7333H19.599C19.3515 45.7333 19.1141 45.635 18.939 45.46C18.764 45.2849 18.6657 45.0475 18.6657 44.8C18.6657 44.5525 18.764 44.3151 18.939 44.14C19.1141 43.965 19.3515 43.8667 19.599 43.8667H36.399C36.6465 43.8667 36.8839 43.965 37.059 44.14C37.234 44.3151 37.3323 44.5525 37.3323 44.8ZM24.2657 17.1733C24.2657 15.3421 25.9345 12.9892 27.313 11.4053C27.7165 12.8058 28.6356 14.0014 29.8853 14.7513C30.0047 14.8391 30.1195 14.9231 30.2315 15.008C28.9606 15.2448 27.7544 15.7484 26.6923 16.4855C25.9642 16.995 25.1564 17.3802 24.3021 17.6251C24.2918 17.4748 24.2657 17.3283 24.2657 17.1733ZM27.719 18.0488C28.825 17.1902 30.2036 16.7594 31.6017 16.8355C31.6962 17.2312 31.7401 17.6373 31.7323 18.0441C31.7323 21.2193 28.8745 21.4667 27.999 21.4667C27.3319 21.4448 26.6836 21.2407 26.1242 20.8766C25.5648 20.5125 25.1157 20.0023 24.8257 19.4012C25.8567 19.1094 26.8338 18.6527 27.719 18.0488ZM26.599 23.1289C27.0539 23.2616 27.5251 23.3304 27.999 23.3333C28.4801 23.3305 28.9596 23.2776 29.4298 23.1756L30.393 26.6597C30.4303 26.7951 30.4574 26.9313 30.4863 27.0667H25.5117C25.5443 26.9257 25.5723 26.7867 25.6115 26.6448L26.599 23.1289ZM25.2923 29.6137C25.2802 29.3869 25.2802 29.1601 25.2849 28.9333H30.7337C30.7383 29.1545 30.7337 29.3748 30.7262 29.596L30.0981 42H25.8981L25.2923 29.6137ZM39.4081 31.0063C37.8837 32.4055 36.664 34.1038 35.8251 35.9953C34.9862 37.8868 34.5461 39.9309 34.5323 42H31.9675L32.5807 29.6912C32.6409 28.5024 32.5101 27.3116 32.1934 26.1641L31.1863 22.5241C31.9529 22.062 32.5813 21.4024 33.0057 20.6143C33.4301 19.8262 33.635 18.9385 33.599 18.0441C33.6474 17.081 33.429 16.1232 32.9679 15.2763C32.5068 14.4293 31.8209 13.7261 30.9857 13.244C30.296 12.8671 29.7332 12.2949 29.3678 11.5991C29.0025 10.9033 28.851 10.115 28.9323 9.33333C28.9324 9.15136 28.8793 8.97332 28.7796 8.82112C28.6798 8.66893 28.5377 8.54922 28.3708 8.47672C28.2039 8.40422 28.0194 8.3821 27.8401 8.41308C27.6608 8.44405 27.4944 8.52678 27.3615 8.65107C27.159 8.84053 22.399 13.328 22.399 17.1733C22.3863 18.1612 22.6046 19.1384 23.0367 20.0269C23.4687 20.9155 24.1024 21.6907 24.8873 22.2908L23.8158 26.1427C23.4897 27.3015 23.3551 28.5058 23.4173 29.708L24.0305 42H21.4657C21.4584 39.9376 21.0251 37.8989 20.193 36.0117C19.3609 34.1246 18.1479 32.4297 16.6301 31.0333C14.9051 29.4468 13.5312 27.517 12.5966 25.3678C11.662 23.2186 11.1874 20.8977 11.2033 18.5541C11.2192 16.2106 11.7253 13.8963 12.689 11.76C13.6527 9.62371 15.0527 7.71268 16.799 6.14973C18.56 4.5587 20.6409 3.36277 22.9022 2.64224C25.1635 1.9217 27.5527 1.69322 29.9095 1.97213C33.1056 2.33762 36.1295 3.61302 38.6219 5.64675C41.1143 7.68048 42.9704 10.387 43.9697 13.4448C44.9689 16.5025 45.0693 19.7828 44.2588 22.8959C43.4484 26.009 41.7612 28.824 39.3978 31.0063H39.4081Z" fill="#0A6D77"/>
<path d="M28.0009 3.73335C25.6823 3.72597 23.3943 4.26254 21.3208 5.29996C19.2473 6.33738 17.446 7.84671 16.0617 9.70668C15.9131 9.90471 15.8494 10.1536 15.8844 10.3987C15.9194 10.6437 16.0503 10.8648 16.2483 11.0134C16.4464 11.1619 16.6953 11.2256 16.9403 11.1906C17.1854 11.1556 17.4065 11.0247 17.555 10.8267C18.7663 9.19946 20.3423 7.87897 22.1564 6.97125C23.9706 6.06353 25.9723 5.59388 28.0009 5.60002C28.2484 5.60002 28.4858 5.50168 28.6608 5.32665C28.8359 5.15162 28.9342 4.91422 28.9342 4.66668C28.9342 4.41915 28.8359 4.18175 28.6608 4.00672C28.4858 3.83168 28.2484 3.73335 28.0009 3.73335Z" fill="#0A6D77"/>
<path d="M15.2704 12.7699C15.1561 12.7254 15.0342 12.7038 14.9117 12.7064C14.7891 12.709 14.6682 12.7357 14.556 12.785C14.4438 12.8343 14.3423 12.9053 14.2575 12.9938C14.1727 13.0823 14.1062 13.1867 14.0617 13.3009C14.0122 13.4297 13.9637 13.5585 13.918 13.6892C13.8731 13.8057 13.852 13.9299 13.8559 14.0546C13.8599 14.1794 13.8888 14.3021 13.9411 14.4154C13.9933 14.5288 14.0677 14.6305 14.1599 14.7146C14.2521 14.7987 14.3602 14.8634 14.4779 14.905C14.5955 14.9466 14.7204 14.9641 14.8449 14.9566C14.9695 14.9491 15.0913 14.9167 15.2031 14.8613C15.3149 14.8059 15.4145 14.7287 15.496 14.6341C15.5774 14.5395 15.6391 14.4296 15.6773 14.3108C15.7174 14.1988 15.7585 14.0877 15.8014 13.9776C15.891 13.747 15.8854 13.4903 15.7859 13.2638C15.6863 13.0374 15.5009 12.8597 15.2704 12.7699Z" fill="#0A6D77"/>
<path d="M55.0685 17.7333H49.4685C49.221 17.7333 48.9836 17.8316 48.8085 18.0066C48.6335 18.1817 48.5352 18.4191 48.5352 18.6666C48.5352 18.9141 48.6335 19.1515 48.8085 19.3266C48.9836 19.5016 49.221 19.5999 49.4685 19.5999H55.0685C55.316 19.5999 55.5534 19.5016 55.7285 19.3266C55.9035 19.1515 56.0018 18.9141 56.0018 18.6666C56.0018 18.4191 55.9035 18.1817 55.7285 18.0066C55.5534 17.8316 55.316 17.7333 55.0685 17.7333Z" fill="#0A6D77"/>
<path d="M48.9683 13.9794L54.3751 12.5216C54.4935 12.4896 54.6044 12.4346 54.7016 12.3597C54.7987 12.2848 54.8802 12.1916 54.9413 12.0852C55.0024 11.9789 55.0419 11.8616 55.0577 11.7399C55.0734 11.6183 55.0651 11.4948 55.0331 11.3764C55.0011 11.258 54.9461 11.147 54.8712 11.0499C54.7964 10.9527 54.7031 10.8713 54.5968 10.8102C54.4904 10.7491 54.3731 10.7095 54.2515 10.6938C54.1298 10.678 54.0063 10.6864 53.8879 10.7184L48.4811 12.1762C48.2622 12.2348 48.0721 12.371 47.9463 12.5594C47.8204 12.7478 47.7674 12.9756 47.7971 13.2002C47.8268 13.4248 47.9372 13.631 48.1077 13.7802C48.2782 13.9294 48.4972 14.0115 48.7238 14.0112C48.8063 14.0111 48.8885 14.0005 48.9683 13.9794Z" fill="#0A6D77"/>
<path d="M50.9285 4.25326L46.0873 7.06819C45.9767 7.12731 45.8791 7.20812 45.8003 7.30581C45.7216 7.40351 45.6634 7.51607 45.6292 7.63677C45.5949 7.75747 45.5854 7.88384 45.6011 8.00831C45.6168 8.13279 45.6574 8.25282 45.7206 8.36123C45.7838 8.46964 45.8681 8.56421 45.9686 8.63928C46.0692 8.71434 46.1838 8.76837 46.3057 8.79814C46.4276 8.8279 46.5542 8.83278 46.678 8.8125C46.8018 8.79221 46.9203 8.74717 47.0263 8.68006L51.8675 5.86419C51.9763 5.80405 52.072 5.72279 52.1489 5.62516C52.2259 5.52753 52.2826 5.41551 52.3156 5.29568C52.3487 5.17584 52.3575 5.05061 52.3415 4.92733C52.3256 4.80405 52.2851 4.6852 52.2226 4.57776C52.16 4.47033 52.0766 4.37647 51.9773 4.3017C51.878 4.22693 51.7647 4.17276 51.6442 4.14235C51.5237 4.11195 51.3983 4.10594 51.2754 4.12466C51.1525 4.14339 51.0346 4.18647 50.9285 4.25139V4.25326Z" fill="#0A6D77"/>
<path d="M54.1346 26.6467C54.3612 26.647 54.5802 26.5649 54.7507 26.4157C54.9212 26.2665 55.0316 26.0603 55.0613 25.8357C55.091 25.6111 55.038 25.3833 54.9121 25.1949C54.7863 25.0065 54.5962 24.8703 54.3773 24.8117L48.9705 23.3539C48.7314 23.2893 48.4764 23.3223 48.2616 23.4457C48.0469 23.5691 47.8899 23.7727 47.8253 24.0119C47.7607 24.251 47.7937 24.506 47.9171 24.7207C48.0405 24.9355 48.2442 25.0925 48.4833 25.1571L53.8901 26.6149C53.9699 26.636 54.0521 26.6466 54.1346 26.6467Z" fill="#0A6D77"/>
<path d="M47.0241 28.6534C46.8101 28.5289 46.5554 28.4945 46.316 28.5577C46.0767 28.621 45.8722 28.7768 45.7477 28.9908C45.6232 29.2048 45.5888 29.4595 45.6521 29.6988C45.7154 29.9382 45.8711 30.1426 46.0851 30.2671L50.9263 33.082C51.0324 33.147 51.1503 33.19 51.2732 33.2088C51.3961 33.2275 51.5215 33.2215 51.642 33.1911C51.7625 33.1607 51.8758 33.1065 51.9751 33.0317C52.0744 32.957 52.1578 32.8631 52.2203 32.7557C52.2829 32.6482 52.3233 32.5294 52.3393 32.4061C52.3553 32.2828 52.3465 32.1576 52.3134 32.0378C52.2804 31.9179 52.2237 31.8059 52.1467 31.7083C52.0698 31.6106 51.9741 31.5294 51.8653 31.4692L47.0241 28.6534Z" fill="#0A6D77"/>
<path d="M0 18.6666C0 18.9141 0.0983331 19.1515 0.273367 19.3266C0.448401 19.5016 0.685798 19.5999 0.933333 19.5999H6.53333C6.78087 19.5999 7.01827 19.5016 7.1933 19.3266C7.36833 19.1515 7.46667 18.9141 7.46667 18.6666C7.46667 18.4191 7.36833 18.1817 7.1933 18.0066C7.01827 17.8316 6.78087 17.7333 6.53333 17.7333H0.933333C0.685798 17.7333 0.448401 17.8316 0.273367 18.0066C0.0983331 18.1817 0 18.4191 0 18.6666Z" fill="#0A6D77"/>
<path d="M0.966058 11.3764C0.933987 11.4948 0.925569 11.6183 0.941288 11.74C0.957007 11.8617 0.996553 11.979 1.05767 12.0854C1.11878 12.1917 1.20026 12.285 1.29744 12.3599C1.39463 12.4347 1.50562 12.4897 1.62406 12.5216L7.03086 13.9794C7.11067 14.0005 7.19286 14.0111 7.27539 14.0112C7.50197 14.0115 7.72093 13.9294 7.89143 13.7802C8.06193 13.631 8.17233 13.4248 8.20203 13.2002C8.23174 12.9756 8.17872 12.7478 8.05287 12.5594C7.92702 12.371 7.73693 12.2348 7.51806 12.1762L2.11126 10.7184C1.99286 10.6863 1.8693 10.6779 1.74764 10.6936C1.62598 10.7093 1.50862 10.7489 1.40226 10.81C1.2959 10.8711 1.20263 10.9526 1.12778 11.0498C1.05293 11.1469 0.997978 11.2579 0.966058 11.3764Z" fill="#0A6D77"/>
<path d="M9.91429 7.06816L5.07309 4.25323C4.96707 4.18831 4.84916 4.14522 4.72626 4.12649C4.60336 4.10777 4.47796 4.11378 4.35742 4.14419C4.23688 4.17459 4.12363 4.22876 4.02432 4.30353C3.925 4.3783 3.84162 4.47216 3.77908 4.5796C3.71653 4.68703 3.67608 4.80588 3.66009 4.92916C3.64411 5.05244 3.65291 5.17768 3.68599 5.29751C3.71906 5.41734 3.77575 5.52936 3.85271 5.62699C3.92967 5.72462 4.02536 5.80589 4.13416 5.86603L8.97536 8.68003C9.18935 8.80454 9.44404 8.83894 9.6834 8.77566C9.92276 8.71239 10.1272 8.55662 10.2517 8.34263C10.3762 8.12863 10.4106 7.87394 10.3473 7.63458C10.2841 7.39522 10.1283 7.1908 9.91429 7.06629V7.06816Z" fill="#0A6D77"/>
<path d="M8.17373 24.0127C8.14191 23.8942 8.08702 23.7831 8.01222 23.6858C7.93742 23.5886 7.84416 23.507 7.73779 23.4458C7.63142 23.3846 7.51402 23.3449 7.39232 23.3292C7.27061 23.3134 7.14699 23.3218 7.02853 23.3538L1.62173 24.8117C1.40278 24.8703 1.21263 25.0065 1.08678 25.1951C0.960931 25.3836 0.907979 25.6114 0.937807 25.8361C0.967636 26.0608 1.07821 26.2669 1.24888 26.4161C1.41956 26.5652 1.63867 26.6472 1.86533 26.6466C1.94786 26.6466 2.03005 26.6359 2.10986 26.6149L7.51666 25.157C7.75549 25.0923 7.95886 24.9355 8.08207 24.7209C8.20528 24.5063 8.23825 24.2516 8.17373 24.0127Z" fill="#0A6D77"/>
<path d="M4.60179 33.207C4.76579 33.2065 4.92675 33.1627 5.06845 33.0801L9.90965 30.2652C10.1108 30.1348 10.254 29.932 10.3097 29.6989C10.3654 29.4658 10.3292 29.2202 10.2088 29.013C10.0883 28.8057 9.89276 28.6528 9.66262 28.5859C9.43248 28.5189 9.18541 28.5431 8.97259 28.6533L4.13139 31.4673C3.95439 31.5704 3.81624 31.729 3.73825 31.9184C3.66026 32.1078 3.64676 32.3177 3.69984 32.5155C3.75291 32.7134 3.86961 32.8883 4.03194 33.0133C4.19426 33.1382 4.3932 33.2063 4.59805 33.207H4.60179Z" fill="#0A6D77"/>
</g>
<defs>
<clipPath id="clip0_708_12741">
<rect width="56" height="56" fill="white"/>
</clipPath>
</defs>
</svg>
