<svg width="20" height="20" viewBox="0 0 20 20" fill="none" xmlns="http://www.w3.org/2000/svg">
<path d="M2.50033 17.5C5.00033 17.5 8.33366 16.6667 8.33366 10.8333V4.16667C8.33366 3.125 7.70366 2.48584 6.66699 2.5H3.33366C2.29199 2.5 1.66699 3.125 1.66699 4.14334V9.16667C1.66699 10.2083 2.29199 10.8333 3.33366 10.8333C4.16699 10.8333 4.16699 10.8333 4.16699 11.6667V12.5C4.16699 13.3333 3.33366 14.1667 2.50033 14.1667C1.66699 14.1667 1.66699 14.1733 1.66699 15.0258V16.6667C1.66699 17.5 1.66699 17.5 2.50033 17.5Z" stroke="#676F6F" stroke-width="2" stroke-linecap="round" stroke-linejoin="round"/>
<path d="M12.5003 17.5C15.0003 17.5 18.3337 16.6667 18.3337 10.8333V4.16667C18.3337 3.125 17.7028 2.48584 16.667 2.5H13.3337C12.292 2.5 11.667 3.125 11.667 4.14334V9.16667C11.667 10.2083 12.292 10.8333 13.3337 10.8333H13.9587C13.9587 12.7083 14.167 14.1667 11.667 14.1667V16.6667C11.667 17.5 11.667 17.5 12.5003 17.5Z" stroke="#676F6F" stroke-width="2" stroke-linecap="round" stroke-linejoin="round"/>
</svg>
