<svg width="42" height="35" viewBox="0 0 42 35" fill="none" xmlns="http://www.w3.org/2000/svg">
<path d="M17.8934 1.53864e-06L11.5134 24.42L9.75338 16.17C12.32 16.17 14.4467 16.9767 16.1334 18.59C17.82 20.2033 18.6634 22.3667 18.6634 25.08C18.6634 27.7933 17.82 29.9933 16.1334 31.68C14.4467 33.2933 12.3567 34.1 9.86338 34.1C7.22338 34.1 5.06005 33.2567 3.37338 31.57C1.68672 29.8833 0.843383 27.72 0.843384 25.08C0.843384 24.2 0.880051 23.3933 0.953384 22.66C1.10005 21.8533 1.35672 20.9 1.72338 19.8C2.09005 18.7 2.60338 17.3067 3.26338 15.62L9.09339 0L17.8934 1.53864e-06ZM41.2134 5.61604e-06L34.8334 24.42L33.0734 16.17C35.64 16.17 37.7667 16.9767 39.4534 18.59C41.14 20.2033 41.9834 22.3667 41.9834 25.08C41.9834 27.7933 41.14 29.9933 39.4534 31.68C37.7667 33.2933 35.6767 34.1 33.1834 34.1C30.5434 34.1 28.38 33.2567 26.6934 31.57C25.0067 29.8833 24.1634 27.72 24.1634 25.08C24.1634 24.2 24.2 23.3933 24.2734 22.66C24.42 21.8533 24.6767 20.9 25.0434 19.8C25.41 18.7 25.9234 17.3067 26.5834 15.62L32.4134 4.0774e-06L41.2134 5.61604e-06Z" fill="#E2E3FF"/>
</svg>
